<?xml version="1.0" standalone="no"?>
<!DOCTYPE svg PUBLIC "-//W3C//DTD SVG 20010904//EN"
 "http://www.w3.org/TR/2001/REC-SVG-20010904/DTD/svg10.dtd">
<svg version="1.0" xmlns="http://www.w3.org/2000/svg"
 width="968.000000pt" height="968.000000pt" viewBox="0 0 968.000000 968.000000"
 preserveAspectRatio="xMidYMid meet">
<metadata>
Created by potrace 1.14, written by Peter Selinger 2001-2017
</metadata>
<g transform="translate(0.000000,968.000000) scale(0.100000,-0.100000)"
fill="#000000" stroke="none">
<path d="M0 4840 l0 -4840 4840 0 4840 0 0 4830 0 4830 -2111 0 -2112 0 6 -74
c7 -74 6 -75 -21 -95 -37 -26 -77 -85 -108 -158 -15 -33 -23 -45 -20 -28 3 17
11 55 16 85 16 85 82 259 99 263 9 3 -24 5 -72 6 -80 1 -88 -1 -83 -16 27 -93
28 -117 22 -313 -4 -112 -9 -215 -11 -230 -5 -22 -4 -22 4 -5 5 11 10 34 10
50 1 18 4 25 9 18 5 -8 12 3 20 31 17 63 79 196 92 196 6 0 9 3 7 8 -2 4 8 18
21 32 l24 25 -22 -44 c-24 -49 -65 -153 -85 -216 -11 -36 -11 -41 4 -42 9 0
27 -4 41 -7 14 -3 59 -8 100 -11 41 -3 100 -7 130 -11 85 -8 93 -9 125 -2 33
7 75 55 79 91 11 85 107 132 121 59 3 -15 10 -41 15 -58 6 -17 10 -40 10 -51
0 -22 40 -88 52 -86 4 1 22 -3 40 -8 55 -17 61 -18 128 -35 36 -9 76 -22 90
-29 24 -13 50 -19 133 -32 20 -3 37 -9 37 -14 0 -7 57 -23 63 -17 1 2 14 -4
27 -13 14 -8 63 -31 110 -49 47 -19 91 -40 98 -47 7 -7 18 -14 23 -14 14 -2
22 -5 52 -17 16 -7 32 -12 36 -12 5 0 14 -7 21 -15 7 -8 27 -17 46 -21 19 -3
32 -10 29 -14 -2 -4 23 -17 58 -28 l62 -20 8 21 c16 41 20 175 8 271 -12 92
-11 98 8 130 29 47 97 106 121 106 25 0 26 -12 0 -27 -10 -7 -37 -36 -60 -64
l-40 -51 0 -156 c0 -181 -15 -286 -58 -396 -17 -42 -28 -76 -26 -76 16 0 93
221 96 273 1 26 2 24 8 -13 l6 -45 17 35 c9 19 16 30 17 24 0 -15 -19 -113
-27 -139 -5 -17 -4 -18 9 -7 12 10 18 8 32 -7 10 -11 24 -17 31 -15 7 3 15 -2
18 -10 4 -9 12 -16 18 -16 7 0 17 -7 23 -15 6 -8 31 -19 56 -23 35 -6 44 -12
42 -25 -6 -35 14 -14 42 44 33 67 49 75 124 65 66 -9 77 -22 56 -72 -9 -21
-26 -55 -37 -74 -12 -19 -22 -41 -23 -48 -2 -7 30 -45 69 -85 39 -40 68 -65
63 -57 -7 13 -6 13 6 0 20 -23 44 -20 74 11 17 18 27 40 29 64 2 28 13 47 51
86 68 70 83 77 106 49 12 -15 16 -31 12 -49 -8 -30 -33 -63 -44 -56 -5 3 -23
-2 -42 -12 -18 -9 -40 -20 -48 -23 -8 -4 -15 -16 -15 -26 0 -11 -18 -46 -41
-79 -56 -82 -64 -99 -85 -175 -9 -36 -26 -90 -37 -120 -29 -80 -32 -115 -8
-115 23 0 66 78 66 120 1 72 60 252 90 270 7 4 5 -7 -4 -23 -17 -33 -21 -64
-8 -60 11 4 51 -39 44 -48 -4 -4 -2 -4 5 0 18 10 63 -23 63 -45 0 -11 4 -19 8
-19 5 0 14 -11 20 -25 8 -17 20 -25 36 -25 13 0 27 -7 30 -17 6 -14 14 -10 49
24 52 50 80 60 112 39 32 -21 31 -31 -5 -97 -37 -66 -70 -170 -69 -213 1 -26
3 -24 14 19 7 28 13 42 14 32 0 -10 5 -15 11 -12 6 3 10 -1 10 -11 0 -13 3
-14 14 -5 10 8 16 9 21 1 3 -5 3 -10 -1 -10 -3 0 4 -8 17 -19 22 -17 24 -17
37 -2 12 14 12 14 4 -4 -9 -19 -15 -64 -13 -92 1 -7 11 -13 24 -13 13 0 27 -4
33 -9 5 -5 26 -14 47 -21 26 -8 37 -17 33 -26 -3 -7 -1 -16 5 -19 5 -4 7 -11
4 -16 -4 -5 -1 -9 5 -9 7 0 10 -6 8 -12 -3 -7 -1 -17 4 -23 4 -5 24 -30 43
-53 40 -50 42 -57 18 -71 -16 -9 -14 -10 9 -11 15 0 39 -5 55 -11 l28 -12 -37
-8 c-50 -11 -184 -75 -301 -142 -54 -32 -103 -55 -107 -52 -5 3 -13 -2 -18
-11 -5 -9 -13 -16 -18 -16 -5 0 -8 -4 -6 -9 1 -6 -4 -9 -11 -7 -7 2 -41 -26
-76 -62 -35 -36 -58 -57 -51 -48 6 9 8 23 4 29 -4 7 -3 10 2 6 5 -3 25 8 44
25 19 16 27 27 18 24 -15 -4 -16 -2 -2 37 48 131 65 232 74 426 5 106 6 201 3
210 -4 14 -3 14 6 1 9 -12 11 -10 11 12 0 34 42 148 75 205 41 69 30 100 -28
80 -17 -6 -29 -18 -33 -35 -14 -67 -39 -132 -71 -186 -19 -33 -47 -87 -62
-121 -18 -40 -56 -92 -104 -144 -65 -71 -82 -98 -132 -209 -32 -70 -86 -172
-120 -227 -34 -55 -74 -121 -90 -148 l-27 -47 70 -75 c116 -122 123 -153 56
-255 -20 -30 -60 -106 -89 -167 -30 -62 -56 -113 -58 -113 -7 0 46 126 87 207
51 102 48 131 -14 163 l-37 19 -12 -39 c-18 -62 -71 -168 -71 -144 0 12 -7 27
-16 35 -18 14 -85 145 -78 152 3 2 -4 10 -13 18 -17 13 -17 13 -4 -6 8 -11 -9
3 -38 30 -29 28 -62 64 -74 80 l-21 30 25 -23 c14 -12 29 -19 34 -15 4 5 5 3
2 -3 -3 -6 10 -26 31 -45 l37 -34 -29 33 c-17 17 -26 32 -21 32 4 0 1 8 -8 18
-8 9 -16 20 -16 25 -1 4 -1 8 -2 10 0 1 -2 13 -3 27 -6 55 -18 115 -27 132 -5
9 -9 26 -9 37 0 12 -4 21 -9 21 -4 0 -6 12 -4 28 4 21 2 24 -6 12 -10 -13 -11
-13 -11 0 0 8 7 39 14 68 18 67 99 152 146 152 16 0 32 5 35 11 4 6 13 8 20 5
7 -2 23 2 34 11 12 8 24 13 27 10 3 -3 -11 -15 -30 -27 -20 -12 -36 -26 -36
-32 0 -5 13 1 29 14 16 12 42 30 59 39 l30 17 -13 69 c-7 37 -26 106 -42 153
l-28 85 -49 -1 c-40 0 -53 -5 -72 -27 -28 -33 -58 -125 -85 -267 -11 -58 -36
-181 -55 -274 -20 -101 -30 -174 -25 -180 6 -8 -8 -12 -46 -13 -62 -1 -64 2
-7 16 33 8 35 9 11 10 -15 1 -39 12 -52 26 -14 13 -25 21 -25 17 0 -4 -4 -2
-8 4 -4 6 -25 22 -47 36 -22 14 -51 35 -64 47 -13 11 -27 21 -30 22 -3 0 -19
2 -35 4 -15 2 -51 -5 -78 -16 -28 -11 -52 -18 -54 -16 -4 4 99 92 129 112 12
7 17 34 21 105 5 93 5 94 -8 45 -12 -46 -13 -48 -17 -20 -2 17 -8 30 -14 30
-5 0 -21 8 -35 17 -36 23 -162 72 -182 70 -10 0 -18 4 -18 9 0 6 -4 8 -9 4 -5
-3 -11 5 -13 17 -2 13 -14 -17 -28 -71 -13 -51 -26 -88 -28 -82 -3 8 -9 6 -19
-6 -13 -17 -14 -17 -9 0 3 9 2 17 -3 17 -5 0 -12 -20 -15 -44 l-7 -44 -26 24
c-15 14 -37 27 -49 30 -12 3 -25 12 -28 20 -3 8 -13 14 -22 14 -25 0 -133 109
-166 168 -39 67 -48 68 -11 0 15 -29 69 -93 119 -144 84 -86 87 -91 45 -66
-76 43 -84 49 -69 54 7 3 -7 15 -31 28 -25 12 -70 45 -100 74 -48 44 -51 46
-21 11 19 -23 56 -58 83 -80 26 -21 45 -40 43 -42 -5 -5 -126 64 -151 86 -11
10 -89 51 -172 92 l-153 74 -1 60 c0 33 -3 53 -7 44 -6 -15 -13 -15 -67 6
-113 43 -160 58 -225 72 -36 8 -66 18 -68 24 -2 5 -13 9 -23 9 -11 0 -40 11
-65 25 -25 14 -51 23 -57 19 -7 -3 -1 4 13 16 l25 22 -32 -18 c-18 -10 -29
-22 -26 -27 3 -6 1 -7 -5 -3 -6 4 -22 0 -34 -8 -46 -30 -107 -35 -258 -21
-138 12 -141 13 -65 15 44 2 70 5 58 7 -13 2 -23 9 -23 14 0 5 -6 9 -13 9 -7
0 -23 11 -35 25 -13 15 -33 25 -49 26 -25 0 -26 1 -8 9 15 6 16 9 4 9 -33 2
-338 -30 -426 -44 -51 -8 -110 -15 -130 -14 -34 1 -32 2 22 14 33 8 101 19
150 26 50 6 95 15 100 19 6 5 39 8 74 9 36 0 69 6 75 12 8 9 -7 10 -63 5 -50
-4 -78 -3 -87 5 -12 9 -13 9 -9 -3 5 -12 -4 -17 -39 -22 -52 -8 -72 0 -138 55
-46 39 -177 110 -320 173 -118 52 -168 102 -229 231 -26 55 -66 166 -88 245
-44 153 -73 209 -129 246 -18 13 -42 20 -55 18 -15 -3 -17 -2 -7 3 19 10 23
25 23 98 l0 60 12 -73 c11 -66 16 -78 57 -120 60 -61 72 -87 112 -239 60 -224
131 -352 229 -411 59 -36 234 -102 270 -102 12 0 58 -29 102 -64 44 -35 83
-62 86 -60 11 6 30 -22 21 -32 -4 -4 2 -2 12 6 13 10 17 10 12 3 -5 -9 -1 -13
13 -13 10 0 27 -3 36 -6 10 -4 15 -2 13 7 -5 20 81 23 166 5 59 -12 92 -13
158 -6 46 6 171 11 278 12 l195 2 -232 5 -232 6 -73 51 c-99 68 -366 221 -458
262 -41 19 -129 56 -194 83 -66 27 -130 56 -143 65 -34 22 -47 58 -79 219 -15
77 -30 142 -34 145 -12 9 -30 72 -23 84 3 6 2 8 -2 4 -5 -5 -22 15 -38 44 -16
28 -51 72 -77 98 -40 38 -59 48 -109 58 -46 10 -65 19 -78 38 -22 34 -7 47 64
52 66 4 181 -13 211 -31 6 -5 12 -5 12 -2 0 4 7 0 15 -7 35 -31 45 -38 59 -38
8 0 18 -5 21 -10 4 -6 10 -8 15 -5 4 3 13 -2 20 -11 7 -8 19 -13 27 -10 8 3
12 2 9 -2 -2 -4 3 -16 11 -27 15 -20 15 -20 10 3 -3 13 0 34 8 48 10 21 10 35
-2 83 -12 47 -13 70 -4 113 33 157 117 158 152 0 11 -45 10 -58 -4 -87 -9 -20
-16 -38 -16 -41 0 -3 -7 -11 -17 -18 -15 -12 -15 -13 2 -15 59 -6 133 1 157
16 6 4 7 1 2 -7 -5 -8 -4 -11 1 -7 5 3 49 7 97 8 48 2 87 7 87 11 0 4 3 7 8 7
4 -1 19 -1 35 0 25 1 27 4 27 41 0 53 32 116 70 135 26 14 33 14 72 -1 24 -10
57 -27 73 -39 73 -53 92 -58 242 -60 78 0 145 -4 148 -7 4 -3 36 -4 72 -1 48
3 68 1 75 -9 7 -9 8 -4 3 15 -3 16 -2 26 3 23 13 -8 36 262 29 347 -3 39 -11
89 -17 110 l-11 37 -2589 0 c-1720 0 -2590 3 -2590 10 0 6 -13 10 -30 10 l-30
0 0 -4840z m6667 4225 c3 -9 3 -18 1 -20 -6 -7 -68 18 -68 27 0 15 61 8 67 -7z
m-3766 -81 c8 -7 57 -36 109 -64 52 -29 88 -50 80 -47 -8 3 -24 8 -35 12 -11
4 -7 -2 10 -14 50 -35 2 -26 -74 14 -100 53 -121 76 -120 133 1 45 1 46 9 13
4 -18 14 -39 21 -47z m239 -124 c8 -5 11 -10 5 -10 -5 0 -17 5 -25 10 -8 5
-10 10 -5 10 6 0 17 -5 25 -10z m4027 -67 c-3 -10 -5 -2 -5 17 0 19 2 27 5 18
2 -10 2 -26 0 -35z m-4500 -24 c-3 -11 1 -35 8 -53 8 -18 17 -55 21 -81 3 -26
12 -66 19 -89 11 -35 13 -37 14 -14 1 22 10 33 49 53 26 14 62 37 81 50 18 14
37 22 42 20 4 -3 11 0 14 5 16 26 196 76 283 79 49 2 71 -2 98 -18 20 -12 40
-18 46 -15 7 5 8 2 3 -6 -6 -10 -4 -12 8 -7 9 3 19 1 23 -5 4 -6 3 -8 -3 -5
-5 3 22 -25 59 -64 38 -38 66 -74 63 -78 -2 -5 2 -11 10 -15 8 -3 15 -12 15
-21 0 -9 9 -34 20 -55 30 -60 87 -318 61 -280 -5 8 -7 18 -5 22 3 4 0 8 -5 8
-6 0 -11 -9 -11 -21 0 -11 -4 -18 -9 -15 -5 3 -3 -10 3 -29 14 -39 32 -63 22
-27 -6 17 -3 22 11 22 10 0 27 -6 38 -13 65 -43 92 -56 92 -43 0 7 -7 13 -16
12 -9 0 -15 4 -14 11 2 8 -4 10 -15 6 -9 -3 -14 -3 -10 2 12 13 -12 34 -30 28
-13 -4 -12 -2 3 10 40 32 87 17 220 -73 39 -26 120 -75 180 -109 143 -82 195
-114 195 -124 0 -4 -8 -3 -19 2 -10 6 -22 7 -26 3 -5 -4 -4 -1 0 7 6 10 4 13
-7 9 -8 -3 -37 5 -64 18 -27 13 -55 24 -63 24 -7 0 -11 6 -8 15 4 8 1 17 -5
21 -7 4 -8 3 -4 -4 10 -17 -2 -15 -32 7 -56 39 -139 71 -185 72 -9 0 -15 4
-13 8 3 4 -4 12 -14 19 -11 6 -21 8 -24 4 -7 -12 93 -84 106 -76 6 4 8 3 4 -4
-10 -17 153 -154 226 -189 103 -51 296 -86 563 -103 408 -26 668 -78 968 -192
43 -17 76 -32 74 -34 -2 -2 -28 5 -58 16 -82 30 -120 40 -113 29 7 -12 -27 -7
-156 23 -386 88 -662 104 -1030 62 -189 -21 -210 -19 -302 27 -10 5 -24 9 -31
9 -7 0 -20 8 -29 18 -27 28 -48 43 -48 35 0 -4 -4 -3 -8 4 -4 6 -21 14 -37 17
-17 3 -34 12 -40 19 -6 8 -21 18 -35 22 -13 4 -30 13 -37 21 -7 7 -25 11 -39
8 l-27 -5 18 28 c15 23 15 25 2 15 -17 -14 -38 -73 -57 -162 -7 -30 -17 -62
-22 -70 -7 -12 -8 -11 -4 4 4 10 13 59 21 109 8 49 22 101 31 115 16 24 16 24
-5 10 -11 -8 -48 -40 -82 -72 -33 -32 -58 -49 -55 -39 3 10 19 70 35 135 25
98 28 122 19 155 -5 21 -14 43 -18 48 -9 10 -10 14 -11 43 0 15 -1 15 -8 -2
-6 -16 -12 -11 -39 32 -21 34 -39 52 -51 52 -40 0 -101 -110 -101 -184 -1 -32
-3 -37 -11 -24 -8 14 -28 -3 -129 -112 -125 -135 -137 -154 -189 -285 -64
-159 -115 -222 -292 -358 -124 -96 -155 -134 -248 -312 -96 -182 -191 -351
-231 -410 -73 -107 -101 -193 -122 -370 -7 -60 -14 -99 -16 -86 -5 32 16 242
30 301 11 49 64 148 164 310 36 58 101 175 144 261 44 86 98 177 120 202 23
25 88 83 146 128 123 94 153 136 184 252 88 333 111 393 182 481 32 40 26 36
-28 -20 -70 -73 -107 -95 -127 -75 -6 6 -19 11 -29 11 -15 0 -18 -8 -18 -47 0
-27 4 -55 10 -63 24 -39 -59 -54 -139 -25 -95 33 -128 80 -200 286 -53 153
-51 149 -71 149 -10 0 -40 -9 -66 -20 -26 -11 -48 -19 -50 -17 -2 1 10 54 26
117 17 63 29 118 27 123 -1 4 -40 -19 -87 -51 -112 -76 -115 -41 39 -474 17
-47 33 -108 36 -135 5 -47 4 -47 -5 -10 -23 89 -63 126 -76 70 -3 -16 -10 -43
-14 -61 -8 -31 -5 -62 7 -62 2 0 18 7 35 16 16 9 27 11 24 5 -6 -9 24 -164 39
-203 5 -12 1 -15 -17 -11 -13 2 -30 -1 -38 -6 -13 -9 -13 -14 2 -38 27 -45 90
-84 149 -93 l54 -8 -43 -1 c-125 -3 -219 95 -286 301 -43 135 -55 155 -113
207 -105 95 -124 114 -134 135 -6 11 3 4 20 -16 34 -39 98 -84 108 -74 3 3
-14 28 -38 54 -24 27 -62 69 -83 93 -22 24 -37 37 -34 29 3 -8 8 -26 12 -40
l7 -25 -15 25 c-7 14 -26 79 -40 145 -39 174 -63 261 -91 319 -13 28 -27 71
-30 96 -4 32 -3 39 4 25 5 -11 10 -29 11 -40 0 -11 6 -33 13 -49 12 -26 12
-24 12 35 0 77 12 142 26 134 14 -9 49 -82 49 -102 0 -11 -9 -36 -20 -58 l-20
-38 36 -145 c38 -157 65 -237 89 -268 15 -17 15 -16 1 12 -14 29 -14 31 16 55
17 13 42 34 55 46 13 12 23 20 23 18 0 -2 25 20 55 50 30 29 55 56 55 61 0 13
63 74 76 74 6 0 19 11 28 25 9 14 21 24 26 22 5 -1 21 12 35 28 15 17 23 23
20 15 -4 -8 2 -5 12 7 10 12 48 35 85 51 48 22 73 40 88 64 20 33 27 63 13 55
-10 -6 -16 117 -8 143 8 27 29 26 22 -1z m-1142 -78 c126 -65 115 -45 240
-453 19 -65 39 -118 43 -118 77 -5 119 -14 130 -28 6 -9 12 -14 12 -11 0 2 -9
56 -20 119 -11 63 -20 122 -19 130 2 35 21 -48 54 -235 20 -110 39 -211 42
-225 3 -14 2 -22 -2 -18 -5 5 -18 56 -31 115 -26 122 -32 111 -9 -16 8 -47 13
-87 10 -89 -6 -6 -33 58 -52 123 -22 76 -38 95 -78 95 -59 0 -62 5 -137 245
-68 220 -104 291 -165 332 -52 35 -142 77 -149 70 -2 -2 5 -33 16 -68 31 -99
27 -127 -26 -206 -71 -105 -66 -103 -108 -36 -29 45 -35 65 -31 88 10 47 82
192 109 220 32 32 51 28 171 -34z m-44 -158 l34 -37 -32 25 c-26 20 -50 49
-40 49 2 0 19 -17 38 -37z m69 -58 c13 -14 21 -25 18 -25 -2 0 -15 11 -28 25
-13 14 -21 25 -18 25 2 0 15 -11 28 -25z m596 -118 c14 -30 14 -31 -1 -12 -25
30 -39 59 -26 51 6 -4 18 -22 27 -39z m-477 -87 c16 -41 32 -89 36 -105 3 -17
-9 11 -28 60 -18 50 -41 106 -51 125 -13 27 -14 31 -1 16 8 -11 28 -54 44 -96z
m-100 -95 c66 -72 93 -145 141 -380 17 -82 35 -154 39 -160 5 -5 12 -30 15
-55 11 -75 27 -142 48 -209 19 -60 31 -76 154 -203 74 -75 134 -140 134 -143
0 -4 -36 32 -81 79 -45 47 -86 86 -92 86 -6 0 1 -12 16 -27 14 -16 33 -46 42
-67 9 -22 34 -65 55 -95 79 -118 80 -123 81 -305 0 -118 -4 -175 -15 -206 -18
-53 -15 -71 25 -123 28 -36 29 -39 6 -18 -14 13 -38 41 -52 61 l-26 38 20 67
c14 44 20 90 19 134 -1 60 -2 61 -5 16 -2 -27 -9 -54 -15 -60 -8 -7 -9 -6 -3
5 4 8 -18 -11 -49 -44 -31 -32 -56 -65 -56 -72 0 -8 -8 -14 -17 -14 -14 0 -13
-3 5 -16 21 -15 33 -31 91 -126 38 -64 17 -42 -33 32 -60 91 -74 91 -114 1
-57 -126 -58 -118 54 -249 71 -82 144 -205 144 -241 0 -9 -11 10 -24 42 -27
64 -52 100 -142 202 -33 39 -66 80 -73 93 -15 29 -29 28 -37 -3 -11 -44 5 -73
85 -159 44 -46 91 -107 105 -135 38 -75 31 -76 -9 -1 -38 69 -82 120 -131 150
-35 22 -83 104 -85 146 -1 24 -2 25 -6 7 -2 -13 -8 -23 -13 -23 -12 0 -89 89
-112 130 -10 19 -17 27 -14 17 3 -10 2 -15 -4 -12 -6 3 -16 3 -22 -2 -7 -4
-19 -8 -25 -9 -35 -6 -66 -64 -57 -109 6 -33 5 -35 -22 -37 -16 0 -36 -2 -44
-2 -8 -1 -14 -9 -12 -19 2 -9 -1 -17 -5 -16 -21 3 -22 -3 -8 -31 9 -16 13 -30
10 -30 -3 0 -1 -10 6 -22 6 -13 -18 6 -55 41 -36 36 -72 66 -81 67 -8 1 -13
-2 -9 -7 6 -10 9 -24 26 -109 l12 -55 87 -42 c97 -47 180 -118 244 -206 22
-31 45 -55 50 -53 26 7 65 100 106 254 12 46 28 86 36 89 15 6 65 -35 58 -48
-3 -4 0 -11 6 -15 6 -3 23 -32 37 -63 48 -106 31 -268 -31 -299 -12 -6 -47
-13 -77 -15 -42 -3 -56 -7 -58 -20 -2 -11 3 -17 16 -17 22 0 39 -30 23 -39
-11 -7 78 -134 186 -264 66 -80 73 -93 72 -130 0 -23 -3 -36 -6 -29 -7 19 -34
-35 -35 -71 -1 -24 -6 -19 -40 38 -22 36 -41 65 -43 65 -2 0 16 -39 41 -87 42
-83 56 -132 33 -118 -6 4 -13 -2 -16 -14 -3 -12 -10 -21 -15 -21 -6 0 -8 -7
-4 -15 15 -40 -7 -7 -46 68 -23 45 -62 101 -85 125 -24 23 -43 47 -43 52 0 5
-5 12 -12 16 -7 4 -8 3 -4 -4 12 -20 18 -134 6 -127 -5 3 -10 30 -10 58 0 29
-7 65 -15 81 -14 27 -14 28 2 15 11 -8 8 -2 -6 16 -12 17 -28 30 -34 30 -7 0
-12 5 -12 10 0 6 -5 17 -10 25 -16 25 -23 -40 -8 -77 7 -18 14 -48 15 -67 2
-20 8 -38 14 -40 6 -2 14 -14 17 -25 3 -12 1 -19 -3 -16 -4 3 -6 -4 -3 -15 3
-11 8 -20 12 -20 3 0 12 -9 19 -21 8 -12 9 -18 3 -14 -19 11 -12 -3 11 -25 12
-11 19 -20 15 -20 -4 0 11 -27 34 -61 22 -33 52 -84 65 -112 22 -50 59 -236
84 -432 7 -49 21 -128 32 -175 11 -47 22 -107 25 -135 9 -98 106 -312 198
-437 29 -39 60 -85 69 -102 l18 -31 -21 25 c-12 14 -58 77 -102 140 -149 210
-241 433 -320 775 -54 235 -83 333 -118 403 -37 73 -109 164 -124 155 -7 -4
-8 0 -3 13 4 10 4 15 0 11 -4 -4 -14 -1 -22 6 -13 10 -15 8 -10 -14 5 -26 -3
-29 -79 -33 -11 -1 -19 -4 -17 -8 3 -4 -18 -30 -46 -59 -27 -28 -50 -45 -50
-38 0 7 -2 10 -5 7 -8 -8 64 -236 91 -290 13 -26 24 -51 24 -55 -1 -17 -56 97
-91 192 -36 96 -55 124 -24 35 8 -23 15 -56 15 -72 0 -16 3 -27 8 -25 9 6 8
-105 -2 -121 -4 -7 -12 -12 -18 -12 -6 0 -6 6 2 15 21 26 4 125 -41 237 -82
204 -80 196 -77 270 l3 70 -90 49 c-49 26 -136 67 -194 90 -167 66 -261 63
-261 -8 0 -35 37 -107 83 -160 23 -26 33 -41 22 -34 -11 8 0 -6 25 -32 50 -53
70 -65 24 -14 l-29 32 35 -31 c19 -17 50 -41 68 -53 35 -24 105 -121 114 -159
4 -12 5 -22 4 -22 -26 0 -64 27 -75 53 -47 108 -65 138 -78 133 -9 -4 -11 -1
-7 6 4 7 3 8 -5 4 -9 -6 -9 -11 -1 -21 8 -9 8 -15 0 -20 -6 -3 -7 -11 -4 -17
4 -7 2 -8 -4 -4 -18 11 -14 -5 8 -42 l20 -33 -20 11 c-11 6 -31 28 -45 50 -23
36 -76 63 -93 46 -3 -4 -8 -36 -10 -72 -6 -83 16 -144 65 -181 30 -23 46 -27
107 -28 127 -3 175 -21 161 -63 -6 -20 -6 -20 -55 -1 -64 24 -136 30 -132 10
6 -29 -8 -63 -25 -57 -22 9 -8 -42 19 -71 29 -31 44 -29 52 7 6 33 24 38 71
20 24 -9 27 -15 23 -44 -3 -31 -2 -33 15 -25 13 8 25 6 43 -6 l25 -16 -25 -42
-25 -42 42 -45 c23 -25 28 -33 12 -18 -17 15 -50 34 -74 43 -53 18 -78 19 -36
1 17 -7 45 -25 63 -40 57 -49 34 -101 -53 -117 -58 -11 -87 3 -144 67 -45 52
-47 63 -10 81 23 12 23 13 -14 13 -47 0 -167 39 -245 80 -99 51 -137 94 -214
240 -36 69 -43 91 -37 115 20 86 3 109 -49 65 l-33 -27 35 -21 c48 -28 46 -45
-1 -21 -22 11 -41 15 -46 10 -5 -5 -8 -41 -5 -80 3 -62 7 -75 32 -99 l28 -27
-26 39 c-21 31 -26 50 -24 95 1 34 3 44 5 24 4 -29 6 -31 29 -23 13 5 29 7 36
5 7 -3 30 -39 51 -79 51 -99 100 -153 200 -219 147 -96 197 -172 310 -463 99
-253 106 -264 353 -525 127 -134 163 -189 188 -285 9 -33 29 -90 46 -126 16
-37 33 -86 36 -110 8 -54 -5 -44 -17 14 -6 24 -23 72 -39 108 -16 36 -43 101
-60 145 -17 44 -45 101 -61 127 -30 47 -217 226 -337 323 -73 59 -100 108
-136 247 -14 54 -35 117 -46 140 l-22 43 26 -30 c14 -16 32 -55 41 -85 49
-173 79 -250 106 -276 16 -15 29 -23 29 -17 0 5 -9 18 -19 27 -21 19 -48 81
-31 71 6 -4 10 -12 10 -18 0 -7 14 -30 30 -51 16 -21 28 -42 26 -45 -3 -4 9
-14 25 -23 37 -21 37 -14 0 28 -46 52 -76 108 -140 265 -112 276 -187 394
-296 469 -37 26 -45 28 -55 15 -13 -15 -22 -14 -22 2 0 12 -19 33 -30 33 -5 0
-6 -4 -3 -10 11 -18 -1 -11 -21 12 -19 22 -19 23 1 8 17 -12 18 -12 7 0 -7 8
-20 15 -30 15 -9 0 -16 6 -14 13 1 8 -2 11 -7 8 -17 -11 -198 141 -210 175
-18 51 -13 178 8 245 11 32 25 84 31 114 11 56 42 120 59 120 18 0 23 -106 7
-145 -9 -21 -16 -43 -16 -50 0 -7 26 -23 57 -35 96 -38 117 -60 183 -190 49
-95 72 -129 117 -170 32 -30 62 -49 70 -46 8 3 12 2 9 -3 -6 -10 24 -25 32
-16 3 3 -1 5 -9 5 -10 1 -9 4 4 11 13 8 17 21 15 54 -2 24 -7 41 -12 37 -5 -3
-7 5 -4 16 4 12 3 22 -2 22 -6 0 -17 43 -24 92 -1 4 -10 15 -21 24 -19 15 -19
15 5 1 14 -8 25 -20 25 -26 0 -6 2 -10 5 -9 3 2 23 -8 45 -20 l40 -24 -30 23
c-16 13 -52 45 -80 71 -46 43 -50 51 -49 90 0 24 11 66 24 93 27 59 35 190 14
215 -7 8 -13 20 -14 25 -1 6 -6 9 -12 7 -5 -1 -7 2 -4 6 3 5 -4 18 -17 28 -21
19 -21 19 -7 -1 14 -19 14 -19 -3 -6 -9 8 -16 16 -13 18 2 2 -11 30 -30 60
-73 122 -20 226 84 163 18 -11 35 -20 37 -20 10 0 -108 176 -141 211 -19 19
-31 39 -27 44 5 4 3 5 -3 2 -13 -7 -56 21 -49 33 3 4 -3 14 -13 21 -15 13 -16
12 -3 -3 20 -26 0 -22 -34 8 -27 22 -27 24 -5 13 22 -11 23 -10 13 2 -17 20
-5 57 20 65 26 8 48 -17 131 -145 59 -92 80 -116 50 -60 -8 17 -11 28 -6 25
17 -10 24 11 27 77 5 98 23 233 40 297 3 14 7 30 8 35 2 6 6 16 10 23 5 6 6
16 3 21 -4 5 -1 11 6 13 8 3 12 25 12 61 -1 31 0 57 2 57 1 0 8 -25 14 -55 6
-30 15 -55 20 -55 4 0 16 -17 26 -37 24 -51 28 -29 15 72 -14 105 -15 107 -49
128 -15 9 -44 32 -64 52 -58 56 -47 95 25 91 31 -2 42 -8 57 -34 11 -18 22
-32 24 -32 9 0 -13 72 -33 103 -26 43 -27 61 -1 27 10 -14 25 -25 32 -25 18
-1 39 21 42 43 4 24 46 44 63 30 7 -6 13 -7 13 -2 0 4 23 -14 52 -41 l52 -50
-49 60 c-27 33 -68 77 -90 97 -22 20 -35 37 -29 38 6 0 21 -11 34 -25 13 -14
28 -25 34 -25 6 0 -29 38 -79 84 -49 47 -93 82 -97 80 -4 -3 -8 -22 -8 -43 0
-40 18 -63 57 -75 13 -4 21 -14 20 -26 -1 -16 -4 -17 -17 -6 -8 7 -23 16 -32
19 -48 17 -77 126 -39 147 38 20 66 10 125 -42 69 -61 95 -71 69 -27 -10 16
-21 29 -25 29 -4 0 -24 29 -46 65 -21 36 -41 62 -44 59 -3 -3 -9 0 -14 7 -5 8
-3 10 6 4 8 -5 11 -3 8 6 -3 8 -9 14 -15 14 -6 0 -30 21 -54 48 -24 26 -73 63
-109 83 -36 19 -54 32 -40 28 45 -12 87 -35 129 -70 23 -20 41 -31 41 -26 0
20 -99 118 -169 167 -39 28 -73 57 -76 65 -4 8 6 3 22 -11 15 -14 58 -46 94
-72 76 -53 106 -87 179 -207 71 -117 75 -118 29 -9 -53 123 -79 156 -186 240
-108 86 -129 119 -115 186 15 68 6 66 -13 -3 -20 -76 -38 -110 -81 -159 l-35
-40 4 62 c8 144 164 353 206 276 5 -10 21 -63 35 -118 28 -106 72 -210 110
-260 29 -37 68 -113 95 -182 26 -66 79 -173 87 -173 3 0 2 5 -1 10 -3 6 -1 11
4 11 6 1 15 2 20 3 34 4 118 177 123 251 2 26 -11 42 -62 80 -106 80 -144 141
-138 224 8 103 78 215 123 197 8 -3 32 -43 53 -89 22 -46 55 -108 76 -138 21
-31 36 -66 36 -84 1 -25 2 -27 11 -12 5 9 15 17 20 17 6 0 7 -4 4 -10 -3 -5 0
-7 9 -4 8 3 12 12 9 20 -3 7 2 17 11 20 9 3 13 10 10 15 -3 5 1 9 9 9 13 0 26
18 32 45 2 6 10 34 18 63 9 29 12 50 8 47 -10 -5 -25 25 -16 33 3 3 5 -1 5 -8
0 -7 2 -11 5 -8 10 9 -7 38 -18 31 -6 -3 -7 -1 -3 5 4 7 3 28 -3 47 -15 57 -3
41 36 -45 20 -44 38 -79 40 -76 2 2 -1 14 -6 27 -46 110 -71 186 -71 215 0 43
-12 67 -61 120 -39 43 -67 91 -79 134 -7 25 -7 25 -23 -10 -8 -19 -16 -29 -16
-22 -2 24 31 82 56 102 l25 19 73 -49 c117 -79 126 -104 74 -214 -36 -78 -39
-116 -11 -180 22 -48 34 -61 24 -24 -3 14 -2 19 6 14 7 -4 12 -3 12 2 0 16 33
24 42 10 4 -7 8 -8 8 -3 0 6 -6 17 -12 24 -11 10 -7 17 17 37 67 54 77 63 79
79 1 9 15 30 30 47 23 26 29 29 37 17 26 -36 -23 266 -62 391 -28 87 -76 175
-112 206 -17 14 -56 38 -88 54 -32 16 -60 33 -63 38 -16 27 148 -75 183 -113z
m6896 36 c3 -5 -7 -11 -22 -13 -28 -3 -28 -3 -39 -118 -13 -126 -26 -192 -50
-248 -18 -45 -95 -174 -100 -169 -2 2 19 48 46 103 77 154 109 316 79 404 -9
26 -9 34 2 41 19 12 76 11 84 0z m-495 -125 c0 -17 -21 -36 -41 -36 -28 0 -32
17 -10 39 21 21 51 19 51 -3z m-4386 -212 c-10 -21 -34 -88 -55 -149 -22 -60
-39 -102 -39 -93 0 35 96 296 105 286 3 -3 -2 -22 -11 -44z m-1034 11 c0 -8
-2 -15 -4 -15 -2 0 -6 7 -10 15 -3 8 -1 15 4 15 6 0 10 -7 10 -15z m-417 -184
c33 -41 67 -104 67 -123 0 -7 -11 10 -24 37 -13 28 -56 87 -95 133 -39 46 -71
86 -71 89 0 6 82 -84 123 -136z m344 -73 c-3 -8 -6 -5 -6 6 -1 11 2 17 5 13 3
-3 4 -12 1 -19z m5570 -20 c-3 -7 -5 -2 -5 12 0 14 2 19 5 13 2 -7 2 -19 0
-25z m-6656 -80 c18 -34 -6 -16 -61 45 l-55 61 53 -44 c30 -25 58 -53 63 -62z
m2096 60 c-3 -8 -6 -5 -6 6 -1 11 2 17 5 13 3 -3 4 -12 1 -19z m4859 10 c4 -6
0 -16 -9 -23 -9 -7 -15 -15 -12 -18 3 -4 2 -5 -2 -2 -9 7 -13 37 -7 47 7 12
22 10 30 -4z m-5135 -35 c-17 -32 -40 -58 -41 -47 0 11 38 64 46 64 3 0 0 -8
-5 -17z m4826 -5 c-3 -8 -6 -5 -6 6 -1 11 2 17 5 13 3 -3 4 -12 1 -19z m-5212
-8 c12 -20 -6 -50 -31 -50 -18 0 -24 5 -24 23 0 13 3 27 7 30 10 10 41 8 48
-3z m652 -57 c-2 -16 -4 -5 -4 22 0 28 2 40 4 28 2 -13 2 -35 0 -50z m-2283
-8 c33 -70 14 -73 -55 -8 l-50 47 28 11 c33 15 53 2 77 -50z m3896 45 c247
-16 496 -60 660 -119 82 -29 49 -25 -70 9 -109 31 -260 63 -267 56 -2 -2 6 -6
19 -9 13 -4 29 -19 36 -35 11 -26 25 -33 122 -62 60 -19 108 -35 106 -37 -2
-2 -59 10 -127 27 -149 36 -276 55 -469 71 -270 22 -541 -4 -848 -81 -344 -87
-626 -218 -899 -417 -492 -358 -834 -824 -1022 -1389 -109 -328 -143 -527
-144 -849 -1 -235 11 -350 59 -575 106 -498 400 -1024 775 -1385 427 -412 893
-640 1511 -742 148 -25 586 -24 752 0 65 10 121 16 124 13 3 -4 1 -6 -4 -6 -5
0 -72 -9 -149 -20 -394 -55 -807 -26 -1130 79 -105 34 -326 126 -444 185 -188
95 -346 199 -529 350 -41 33 -82 61 -92 63 -30 4 -30 -37 -1 -71 20 -23 14
-20 -24 11 -27 23 -62 54 -77 70 l-27 28 31 2 c54 4 56 19 8 68 -24 25 -51 47
-60 50 -9 3 -17 11 -17 18 0 6 -40 62 -88 122 -49 61 -131 175 -183 255 -95
146 -118 178 -107 150 3 -9 -3 -20 -14 -27 -17 -11 -22 -9 -36 9 -20 30 -19
15 1 -20 l16 -27 -20 25 c-33 39 -125 232 -182 379 -187 486 -235 1034 -134
1535 47 231 139 505 239 711 58 118 95 178 73 118 -9 -24 -9 -41 1 -73 l13
-43 67 114 c208 354 441 617 756 854 144 108 264 181 462 281 90 44 160 83
158 86 -3 3 1 11 10 18 8 7 15 19 15 27 0 22 -56 10 -152 -32 -43 -18 -76 -29
-73 -25 11 18 323 140 357 140 6 0 24 7 41 15 43 19 359 82 482 95 207 21 282
23 495 10z m2920 -152 c-23 -139 -57 -269 -92 -350 -30 -70 -31 -54 -2 27 32
87 67 237 90 380 10 61 20 102 22 92 2 -10 -6 -77 -18 -149z m-6623 85 c-3
-10 -5 -4 -5 12 0 17 2 24 5 18 2 -7 2 -21 0 -30z m1563 33 c0 -28 -324 -296
-395 -327 -43 -18 -127 -37 -90 -20 19 9 18 10 -5 11 -23 2 -23 3 5 9 55 14
108 48 295 189 195 148 190 144 190 138z m-280 -40 c0 -21 -21 -31 -30 -15 -5
7 -6 17 -4 21 9 14 34 9 34 -6z m1433 -23 c-7 -2 -21 -2 -30 0 -10 3 -4 5 12
5 17 0 24 -2 18 -5z m1667 -3 c8 -5 11 -10 5 -10 -5 0 -17 5 -25 10 -8 5 -10
10 -5 10 6 0 17 -5 25 -10z m-4341 -85 c0 -5 -6 1 -14 15 -8 14 -14 30 -14 35
0 6 6 -1 14 -15 8 -14 14 -29 14 -35z m4456 24 c31 -12 55 -23 53 -24 -2 -2
-33 7 -68 20 -36 13 -60 24 -53 24 7 1 37 -8 68 -20z m2152 -31 c-3 -8 -6 -5
-6 6 -1 11 2 17 5 13 3 -3 4 -12 1 -19z m-2047 -13 c14 -8 21 -14 15 -14 -5 0
-21 6 -35 14 -14 8 -20 14 -15 14 6 0 21 -6 35 -14z m1477 -11 c-3 -3 -12 -4
-19 -1 -8 3 -5 6 6 6 11 1 17 -2 13 -5z m-1397 -24 c8 -5 11 -10 5 -10 -5 0
-17 5 -25 10 -8 5 -10 10 -5 10 6 0 17 -5 25 -10z m-736 -56 c4 -10 1 -14 -6
-12 -15 5 -23 28 -10 28 5 0 13 -7 16 -16z m956 -50 c0 -7 -78 35 -85 45 -3 6
15 -2 40 -15 25 -14 45 -28 45 -30z m177 14 c-3 -8 -6 -5 -6 6 -1 11 2 17 5
13 3 -3 4 -12 1 -19z m-1505 -62 c31 -8 62 -17 70 -22 15 -9 11 -6 109 -84 43
-33 83 -60 90 -60 7 0 10 -2 7 -5 -9 -10 -234 16 -278 32 -25 9 -85 43 -133
75 -85 55 -92 58 -156 59 -55 1 -60 3 -31 9 60 13 262 10 322 -4z m1523 -71
c296 -192 560 -452 768 -755 59 -87 174 -290 164 -290 -3 0 -25 37 -51 83 -25
45 -64 105 -85 134 -22 28 -37 53 -35 56 3 3 1 8 -5 11 -5 4 -13 1 -17 -5 -5
-8 -3 -9 6 -4 9 5 11 4 6 -4 -4 -6 -11 -9 -16 -6 -5 3 -11 1 -15 -5 -4 -6 -11
-8 -16 -5 -16 11 -10 -1 47 -91 31 -49 100 -178 154 -288 54 -109 101 -193
104 -187 4 6 5 15 1 20 -3 6 3 15 14 21 17 9 23 6 35 -17 28 -51 17 -15 -25
82 -47 110 -47 104 6 280 19 66 40 151 45 188 7 59 67 234 76 225 2 -2 -10
-43 -27 -90 -27 -81 -29 -89 -16 -126 13 -37 55 -100 67 -101 3 -1 7 13 8 31
9 111 174 459 255 535 21 20 13 3 -27 -55 -105 -155 -199 -367 -212 -477 -6
-47 -4 -54 15 -64 24 -13 51 -61 51 -91 0 -50 113 -49 175 3 38 31 85 115 85
153 0 11 7 44 15 72 13 43 20 53 43 58 15 3 45 11 67 19 25 9 32 9 20 2 -40
-24 -82 -76 -100 -123 -31 -83 -61 -137 -109 -192 -25 -30 -43 -59 -40 -64 4
-6 2 -8 -4 -5 -10 7 -65 -77 -65 -100 0 -7 -5 -9 -10 -6 -6 4 -8 0 -4 -10 4
-10 2 -16 -5 -14 -10 2 -97 -128 -98 -147 0 -5 9 -1 21 10 12 11 7 -2 -14 -33
-41 -61 -63 -124 -75 -212 -7 -52 -5 -86 14 -180 13 -64 29 -155 35 -203 12
-84 14 -87 31 -71 20 18 25 38 6 27 -19 -11 13 28 36 45 11 8 27 22 36 30 33
32 128 111 134 111 4 0 50 31 104 68 178 125 166 109 -33 -41 -77 -58 -177
-143 -222 -188 -82 -84 -82 -84 -76 -127 l6 -43 29 36 c16 19 33 33 37 30 4
-2 21 10 37 28 l29 32 -32 -29 c-61 -55 -33 -11 48 77 44 47 129 127 189 177
63 52 125 113 145 143 19 28 35 47 35 42 0 -6 -13 -30 -29 -54 -17 -25 -28
-48 -25 -53 3 -5 0 -7 -7 -6 -7 2 -13 -4 -14 -12 -1 -8 -6 -14 -12 -13 -6 1
-26 -12 -45 -30 -19 -18 -24 -24 -13 -14 22 18 60 29 103 31 12 1 22 7 22 14
0 7 4 11 9 8 10 -7 16 17 26 102 4 28 11 52 16 52 11 0 9 16 19 -125 6 -82 16
-145 34 -200 14 -44 26 -94 26 -111 0 -41 -39 -99 -146 -218 -49 -54 -88 -103
-86 -108 1 -5 -2 -7 -7 -3 -11 6 -126 -125 -173 -197 -17 -26 -34 -45 -39 -43
-4 3 -11 0 -15 -6 -5 -8 -3 -9 6 -4 9 6 12 4 8 -6 -29 -70 -99 -255 -113 -297
-9 -29 -19 -52 -20 -50 -4 4 36 146 54 192 7 16 9 36 7 43 -3 8 -2 12 3 9 4
-3 13 6 20 20 15 34 13 44 -3 14 l-14 -24 -1 34 c-2 66 -9 105 -19 103 -5 -1
-8 8 -5 20 2 12 -7 2 -20 -22 l-24 -45 -4 70 c-9 152 -3 389 9 414 12 23 11
23 -11 -4 -24 -27 -24 -33 -30 -260 -6 -253 -20 -363 -72 -581 -31 -128 -97
-331 -112 -344 -3 -3 -4 1 -1 9 3 8 8 26 12 40 l7 25 -14 -23 c-7 -12 -16 -20
-20 -16 -3 4 -10 -1 -13 -10 -5 -14 -9 -15 -16 -4 -7 9 -8 7 -5 -10 3 -12 1
-20 -3 -17 -5 3 -12 -5 -15 -17 -4 -13 -42 -95 -85 -183 -77 -158 -271 -468
-321 -510 -17 -15 -16 -10 8 20 127 165 284 442 367 649 84 207 152 474 181
707 20 161 20 472 0 625 -30 229 -95 485 -170 675 -64 160 -211 438 -298 562
-181 257 -389 472 -610 633 -67 49 -134 97 -147 107 -68 49 19 -6 120 -76 115
-81 260 -198 314 -256 16 -16 33 -28 38 -25 5 3 7 0 6 -8 -2 -7 3 -12 10 -10
6 1 11 -1 11 -5 -3 -20 2 -24 16 -13 13 11 12 17 -12 49 -15 20 -31 38 -35 39
-5 2 -6 8 -2 13 3 5 -3 9 -12 9 -10 0 -15 3 -12 6 12 12 -123 147 -228 227
-38 29 -112 82 -164 116 -52 35 -99 68 -105 74 -14 14 4 3 130 -78z m2116 8
c-8 -31 -42 -53 -81 -53 -21 0 -18 3 16 19 44 20 54 35 55 84 l1 32 8 -27 c5
-16 5 -40 1 -55z m-4154 31 c-3 -3 -12 -4 -19 -1 -8 3 -5 6 6 6 11 1 17 -2 13
-5z m4181 -48 c-1 -51 20 -104 35 -89 4 3 7 -4 7 -16 0 -13 9 -36 21 -52 11
-16 22 -37 24 -47 2 -9 4 -19 5 -22 1 -3 2 -8 1 -12 0 -5 4 -8 10 -8 5 0 7 -4
4 -10 -3 -5 -2 -10 4 -10 5 0 15 -17 21 -37 7 -21 20 -47 29 -57 9 -11 11 -17
5 -13 -14 8 29 -78 50 -98 9 -9 16 -23 16 -31 0 -27 44 -38 81 -20 19 9 44 14
56 12 12 -3 37 -1 55 4 27 8 30 7 17 -3 -10 -8 -15 -26 -13 -57 1 -25 0 -35
-2 -23 -3 12 -11 26 -18 32 -16 13 -65 -77 -164 -301 -87 -194 -121 -246 -242
-368 -77 -78 -111 -104 -180 -139 -117 -60 -150 -86 -151 -119 0 -21 -2 -23
-8 -9 -5 14 -11 7 -25 -32 -20 -55 -28 -64 -66 -69 -42 -5 -163 -43 -203 -64
l-38 -19 11 21 c14 26 75 87 168 168 50 44 119 88 225 143 100 53 168 96 199
126 46 45 47 47 41 97 -3 28 -7 53 -9 55 -8 9 -40 -28 -80 -91 -51 -79 -92
-111 -206 -163 -70 -31 -87 -44 -110 -81 -15 -24 -31 -44 -36 -44 -9 0 -22 56
-22 98 0 13 12 53 26 88 14 36 27 77 29 91 2 22 -6 17 -63 -39 -35 -34 -61
-57 -57 -49 5 9 4 12 -3 7 -7 -4 -9 -17 -6 -30 7 -29 -20 -96 -39 -96 -26 0
-46 35 -48 86 -2 50 -1 53 69 136 39 47 100 109 137 138 50 40 64 57 60 71 -3
10 1 33 11 50 16 32 16 53 1 216 -1 11 -5 19 -8 17 -6 -3 -23 45 -19 55 4 11
-58 31 -87 27 -32 -3 -50 -17 -74 -59 -8 -15 -13 -15 -32 -5 -12 7 -25 12 -29
13 -3 0 -10 3 -14 8 -13 13 -24 7 -24 -12 0 -11 -5 -23 -11 -27 -9 -5 -10 1
-5 20 5 21 3 26 -13 26 -10 0 -29 9 -42 21 -23 19 -23 20 -2 10 29 -15 33 -14
27 4 -4 8 -12 15 -20 15 -8 0 -14 9 -14 20 0 11 -4 20 -10 20 -19 0 -10 61 18
123 52 114 181 227 342 300 56 25 76 29 145 28 134 -2 235 43 235 105 0 13 2
24 4 24 2 0 4 -24 4 -54z m-4231 38 c-3 -3 -12 -4 -19 -1 -8 3 -5 6 6 6 11 1
17 -2 13 -5z m-381 -15 c13 -22 -12 -30 -31 -9 -18 19 -18 20 3 20 11 0 24 -5
28 -11z m199 -34 c-82 -24 -151 -42 -153 -40 -2 2 40 17 95 34 137 42 165 49
188 50 11 0 -47 -20 -130 -44z m-2061 -120 c26 -47 44 -90 41 -95 -3 -6 3 -31
14 -56 12 -26 21 -49 21 -51 0 -3 -20 23 -45 56 -39 53 -45 67 -39 95 4 25 -1
46 -20 85 -43 83 -22 58 28 -34z m5976 71 c0 -2 -18 -15 -40 -30 -22 -14 -40
-24 -40 -22 0 5 71 56 77 56 2 0 3 -2 3 -4z m-90 -59 c0 -2 -12 -14 -27 -28
l-28 -24 24 28 c23 25 31 32 31 24z m-4180 -22 c0 -2 -13 -11 -30 -20 -38 -19
-40 -11 -2 9 31 17 32 18 32 11z m5434 -62 c-29 -56 -30 -70 -6 -77 21 -7 74
-2 91 8 21 13 12 57 -18 87 -16 16 -26 29 -21 29 16 0 60 -62 60 -85 0 -26
-46 -65 -77 -65 -10 0 -27 7 -37 15 -10 8 -23 12 -29 8 -19 -12 3 60 29 94 14
18 26 33 28 33 2 0 -7 -21 -20 -47z m-1408 9 c-17 -16 -18 -16 -5 5 7 12 15
20 18 17 3 -2 -3 -12 -13 -22z m94 24 c0 -2 -8 -10 -17 -17 -16 -13 -17 -12
-4 4 13 16 21 21 21 13z m-4043 -59 l73 -23 -60 -29 -60 -29 -105 35 c-57 19
-105 36 -105 40 0 3 19 14 41 25 49 24 100 19 216 -19z m3213 -12 c13 -14 21
-25 18 -25 -2 0 -15 11 -28 25 -13 14 -21 25 -18 25 2 0 15 -11 28 -25z
m-2000 -10 c113 -17 258 -48 355 -74 81 -23 248 -82 243 -87 -2 -1 -44 11 -93
27 -481 162 -979 169 -1440 19 -67 -22 -191 -75 -276 -117 -85 -43 -159 -77
-166 -77 -7 1 -11 -3 -10 -8 1 -6 -4 -13 -12 -16 -9 -3 -11 0 -6 9 5 8 4 11
-1 6 -5 -5 -9 -14 -9 -19 0 -6 -6 -13 -14 -16 -9 -3 -11 0 -6 9 5 8 4 11 -1 6
-5 -5 -9 -12 -9 -17 0 -4 -38 -36 -85 -70 -47 -34 -99 -74 -115 -89 -45 -38
40 43 129 124 82 75 133 108 154 100 7 -3 11 -1 8 4 -9 13 8 24 159 100 185
93 453 169 706 201 97 12 369 4 489 -15z m2489 1 c13 -16 5 -46 -13 -46 -7 0
-21 6 -31 14 -16 12 -17 16 -6 30 16 20 35 20 50 2z m1611 -107 c-29 -40 -90
-99 -104 -99 -6 0 6 14 26 30 20 17 46 46 58 65 12 19 26 35 31 35 6 0 1 -14
-11 -31z m-6983 -81 c-3 -8 -6 -5 -6 6 -1 11 2 17 5 13 3 -3 4 -12 1 -19z
m3543 2 c19 -11 31 -19 25 -19 -5 0 -26 8 -45 19 -19 11 -30 19 -25 19 6 0 26
-8 45 -19z m-4765 -30 c10 -11 16 -20 13 -20 -3 0 -13 9 -23 20 -10 11 -16 20
-13 20 3 0 13 -9 23 -20z m1232 -12 c-3 -8 -6 -5 -6 6 -1 11 2 17 5 13 3 -3 4
-12 1 -19z m23 -30 c0 -21 -3 -29 -10 -22 -5 5 -7 19 -4 32 9 31 14 27 14 -10z
m6757 -130 c-3 -8 -6 -5 -6 6 -1 11 2 17 5 13 3 -3 4 -12 1 -19z m-3916 -24
c106 -14 282 -59 349 -88 19 -8 27 -15 18 -16 -26 0 -22 -12 14 -40 67 -53
105 -105 114 -158 3 -15 8 -29 12 -32 7 -5 8 -20 2 -37 -1 -5 -2 -11 -1 -15 0
-5 -4 -8 -10 -8 -5 0 -8 -4 -5 -9 3 -4 -3 -16 -13 -25 -23 -21 -21 -41 5 -60
10 -8 -28 9 -86 37 -207 103 -442 152 -690 143 -218 -7 -380 -47 -575 -141
-94 -45 -240 -139 -287 -182 -14 -14 -31 -22 -36 -19 -5 3 -16 -2 -23 -12 -13
-15 -12 -16 4 -3 27 21 20 7 -10 -20 -15 -13 -21 -16 -14 -7 12 16 9 17 -26
14 -21 -1 -52 1 -70 6 -38 10 -93 54 -93 74 0 8 -4 14 -9 14 -6 0 -11 19 -13
43 -2 31 -7 41 -18 39 -23 -5 66 83 155 153 216 169 455 280 724 335 194 39
367 44 582 14z m1530 9 c13 -16 12 -17 -3 -4 -10 7 -18 15 -18 17 0 8 8 3 21
-13z m736 -5 c-3 -8 -6 -5 -6 6 -1 11 2 17 5 13 3 -3 4 -12 1 -19z m1640 -15
c-3 -10 -19 -65 -36 -123 -18 -58 -33 -134 -35 -170 -2 -36 -2 -50 1 -31 l4
34 15 -28 c8 -15 14 -35 14 -44 0 -9 5 -22 12 -29 6 -6 13 -20 15 -29 2 -10 5
-31 8 -48 3 -16 7 -44 9 -61 2 -18 9 -42 16 -54 6 -12 13 -34 15 -48 2 -15 2
-21 -1 -14 -8 19 -39 14 -59 -8 -14 -15 -20 -43 -24 -103 -5 -64 -12 -92 -33
-127 -31 -54 -167 -240 -175 -240 -3 0 6 15 19 33 52 67 116 164 139 207 20
39 23 57 21 140 -1 52 -7 145 -12 205 -19 209 -14 279 24 391 19 54 40 114 47
132 14 34 25 44 16 15z m-1650 -25 c-3 -8 -6 -5 -6 6 -1 11 2 17 5 13 3 -3 4
-12 1 -19z m-10 -40 c-3 -8 -6 -5 -6 6 -1 11 2 17 5 13 3 -3 4 -12 1 -19z
m413 -5 c0 -15 -2 -16 -10 -3 -11 18 -19 11 -22 -23 -3 -35 -18 -23 -18 14 0
24 4 29 25 29 17 0 25 -5 25 -17z m-431 -65 c-7 -23 -17 -47 -22 -53 -7 -7 -8
-4 -4 6 3 10 11 35 18 58 7 23 14 39 16 37 3 -2 -1 -24 -8 -48z m-3909 9 c0
-1 -39 -41 -87 -87 l-88 -85 85 88 c79 81 90 92 90 84z m5781 -7 c10 -6 19
-20 19 -32 0 -26 -57 -143 -78 -160 -13 -11 -14 -11 -8 0 10 17 -21 52 -46 52
-15 0 -17 5 -12 28 9 37 32 93 45 109 14 16 53 17 80 3z m-2431 -20 c8 -15 6
-21 -10 -30 -24 -13 -40 -6 -40 19 0 35 33 43 50 11z m630 -20 c-6 -11 -13
-20 -16 -20 -2 0 0 9 6 20 6 11 13 20 16 20 2 0 0 -9 -6 -20z m-4383 -63 c35
-1 63 -3 63 -5 0 -4 -150 -204 -163 -217 -7 -7 -7 -5 -2 4 7 12 0 13 -35 7
-56 -9 -87 -26 -139 -77 l-44 -42 43 79 c45 82 78 135 137 216 28 38 39 47 56
43 12 -3 50 -7 84 -8z m-1325 -69 c2 -34 -1 -48 -9 -48 -14 0 -19 101 -5 114
8 9 10 1 14 -66z m6361 14 c-35 -32 -92 -89 -129 -127 l-66 -70 64 74 c58 67
176 181 188 180 3 0 -23 -26 -57 -57z m-6438 -4 l40 -42 -42 34 c-35 30 -52
50 -40 50 2 0 21 -19 42 -42z m6217 0 c-7 -7 -12 -8 -12 -2 0 14 12 26 19 19
2 -3 -1 -11 -7 -17z m-4638 -78 c-61 -76 -86 -97 -33 -27 34 44 81 97 86 97 1
0 -22 -31 -53 -70z m-2513 43 c13 -16 12 -17 -3 -4 -17 13 -22 21 -14 21 2 0
10 -8 17 -17z m8139 -56 c0 -2 -10 -12 -22 -23 l-23 -19 19 23 c18 21 26 27
26 19z m-3730 -38 c36 -7 59 -14 53 -16 -7 -3 -35 0 -61 6 -26 5 -100 12 -163
14 -62 2 -88 2 -56 0 31 -2 57 -9 57 -14 0 -6 5 -7 10 -4 6 3 10 2 10 -4 0 -5
-9 -9 -19 -8 -11 0 -17 5 -15 9 3 4 -8 0 -25 -10 -20 -11 -26 -19 -18 -24 11
-7 10 -9 -13 -12 -5 0 -10 -5 -10 -11 -1 -5 34 -13 77 -18 321 -31 571 -141
782 -341 178 -169 316 -403 373 -633 32 -128 32 -398 0 -526 -31 -124 -65
-205 -136 -327 -105 -181 -322 -382 -516 -480 -337 -170 -769 -172 -1102 -4
-187 94 -378 258 -487 417 -95 140 -166 320 -192 491 -19 118 -6 363 24 471
91 323 281 577 572 759 50 31 100 59 112 62 13 4 20 11 16 17 -3 6 -1 7 6 3
14 -9 82 14 75 26 -3 4 1 5 8 3 8 -3 34 2 58 10 56 20 192 45 246 45 25 0 47
6 54 15 8 9 9 15 2 15 -6 0 -14 -4 -17 -10 -3 -5 -35 -8 -70 -6 -35 2 -66 0
-67 -3 -4 -8 -141 -41 -148 -35 -2 3 2 15 9 27 13 20 13 21 -2 9 -13 -11 -16
-10 -22 9 -4 12 -10 18 -14 13 -3 -5 -22 -9 -41 -10 -64 -2 -144 -30 -133 -47
3 -6 1 -7 -6 -3 -21 14 -220 -111 -332 -208 -19 -17 -10 -7 20 22 94 91 278
201 423 256 58 21 208 56 303 70 55 8 309 -2 375 -15z m1921 -44 c7 -14 4 -13
-10 5 -12 14 -19 18 -16 9 3 -9 -1 -22 -10 -29 -8 -7 -15 -20 -15 -29 0 -9 -4
-21 -9 -26 -5 -6 -14 -28 -21 -49 -11 -33 -14 -36 -22 -21 -8 13 -5 24 11 45
26 36 62 130 55 144 -3 6 2 2 11 -9 9 -11 21 -29 26 -40z m1744 3 c-67 -80
-206 -224 -270 -281 -38 -34 11 22 110 125 99 103 182 187 183 187 2 1 -8 -14
-23 -31z m-3535 12 c13 -9 13 -10 0 -9 -8 1 -26 5 -40 9 l-25 8 25 1 c14 0 32
-4 40 -9z m2640 -44 c0 -2 -8 -10 -17 -17 -16 -13 -17 -12 -4 4 13 16 21 21
21 13z m-3360 -41 c0 -5 -5 -3 -10 5 -5 8 -10 20 -10 25 0 6 5 3 10 -5 5 -8
10 -19 10 -25z m-2816 16 c8 -13 -20 -45 -32 -37 -20 12 -14 46 7 46 11 0 22
-4 25 -9z m383 -23 c-3 -8 -6 -5 -6 6 -1 11 2 17 5 13 3 -3 4 -12 1 -19z m720
-155 c-35 -71 -86 -190 -113 -266 -27 -76 -50 -131 -52 -123 -5 24 -104 -27
-119 -61 -17 -40 -15 -19 6 67 19 73 39 132 40 117 2 -22 161 99 161 123 0 4
-18 -1 -40 -11 -22 -11 -52 -24 -66 -29 -14 -6 -30 -23 -36 -40 -6 -17 -12
-29 -14 -27 -6 5 30 106 54 152 23 46 73 94 152 151 30 21 61 46 68 56 30 41
19 11 -41 -109z m6523 108 c16 -31 12 -57 -15 -89 -25 -30 -130 -80 -142 -68
-3 3 -1 6 6 6 7 0 26 14 41 30 15 17 34 30 41 30 8 0 5 -6 -7 -16 -18 -15 -18
-15 3 -4 12 5 29 20 37 32 16 23 22 78 9 78 -12 0 -93 -79 -137 -133 -22 -26
-63 -65 -92 -87 -30 -22 -61 -54 -69 -70 -18 -35 -19 -48 -3 -32 7 7 26 11 43
11 23 -1 25 -3 7 -6 -12 -2 -20 -9 -17 -14 4 -5 8 -17 10 -26 2 -10 8 -31 14
-48 6 -16 15 -77 21 -135 7 -58 17 -116 23 -130 6 -14 13 -29 15 -34 3 -5 0
-6 -5 -3 -5 3 -10 1 -11 -6 0 -7 -3 -27 -6 -45 -3 -19 -1 -30 5 -26 5 3 7 10
4 15 -4 5 -2 9 3 9 9 0 32 51 32 71 0 4 -8 9 -17 11 -16 3 -15 6 5 26 24 24
44 23 24 -1 -6 -7 -7 -18 -2 -26 6 -11 25 -6 90 28 154 80 140 67 134 142 -7
75 6 99 56 99 25 0 31 -5 41 -40 8 -28 9 -53 3 -78 -8 -35 -16 -41 -132 -101
-109 -57 -134 -75 -226 -165 -57 -55 -108 -110 -113 -121 -13 -25 -6 -86 12
-99 9 -8 15 -66 20 -211 9 -256 10 -254 -16 -282 -30 -31 -32 -25 -8 25 17 34
20 51 13 94 -4 29 -9 48 -11 41 -2 -7 -10 -10 -16 -7 -7 2 -20 -16 -31 -43
-12 -30 -47 -77 -94 -125 -73 -75 -87 -99 -35 -58 38 30 51 24 20 -8 -32 -34
-34 -65 -6 -111 l20 -33 74 4 c98 5 127 25 137 97 11 74 67 178 141 258 35 38
77 89 94 114 17 24 41 53 53 64 20 18 24 18 48 4 15 -8 28 -22 30 -31 5 -25
-45 -75 -101 -101 -47 -21 -183 -134 -174 -143 2 -3 19 2 38 10 57 23 80 3 30
-27 -21 -12 -28 -23 -24 -36 3 -11 -4 -28 -17 -41 -14 -14 -28 -51 -41 -113
-32 -150 -30 -145 -39 -122 -7 15 -9 10 -9 -22 -1 -23 -6 -54 -12 -70 -10 -27
-11 -27 -24 -9 -12 15 -22 18 -57 13 -40 -5 -41 -5 -13 5 17 6 36 15 43 21 8
6 12 5 12 -4 0 -11 2 -11 10 1 5 8 10 31 10 51 0 35 -2 37 -44 48 -25 6 -72
11 -106 11 -64 0 -94 11 -163 61 -22 16 -46 29 -53 29 -7 0 38 52 99 115 136
141 177 209 176 293 -1 50 -2 54 -10 27 -5 -16 -18 -41 -29 -55 l-20 -25 16
40 16 40 -32 -38 c-17 -20 -37 -34 -43 -30 -6 4 -8 0 -4 -10 3 -9 3 -16 -1
-14 -4 1 -39 -19 -77 -44 -39 -25 -110 -70 -159 -100 -49 -30 -123 -87 -166
-126 -43 -40 -80 -73 -82 -73 -8 0 -13 88 -13 237 0 148 1 152 25 178 28 31
133 101 200 135 25 12 70 37 100 55 30 19 81 41 113 51 51 16 57 20 57 45 0
45 -28 44 -139 -1 -98 -41 -100 -42 -134 -25 -52 25 -54 42 -7 86 41 39 60 48
60 29 0 -14 42 -12 63 4 9 7 17 19 17 25 0 7 26 39 57 72 56 59 57 61 79 167
24 114 24 114 -29 41 -17 -24 11 32 52 101 51 87 99 188 104 222 5 36 66 183
67 162 0 -7 -11 -36 -24 -65 -14 -30 -28 -69 -31 -88 l-6 -33 42 36 c24 20 46
36 50 36 5 0 35 36 68 79 60 79 115 131 138 131 7 0 17 -9 23 -19z m-1540 -4
c0 -2 -10 -12 -22 -23 l-23 -19 19 23 c18 21 26 27 26 19z m-7302 -19 c14 -14
17 -178 3 -178 -15 0 -20 12 -32 89 -14 91 -4 122 29 89z m6792 -23 c10 -12
10 -15 -4 -15 -9 0 -16 7 -16 15 0 8 2 15 4 15 2 0 9 -7 16 -15z m-111 -120
c0 -5 -6 1 -14 15 -8 14 -14 30 -14 35 0 6 6 -1 14 -15 8 -14 14 -29 14 -35z
m55 -143 c19 -56 43 -138 51 -181 15 -71 15 -87 1 -163 -23 -125 -53 -260 -64
-288 l-11 -25 0 30 c-1 17 -8 75 -17 130 -21 136 -19 232 6 345 22 100 21 157
-6 234 -8 21 -14 41 -14 45 1 15 21 -32 54 -127z m-3324 55 c0 -2 -12 -14 -27
-28 l-28 -24 24 28 c23 25 31 32 31 24z m5270 -3 c0 -8 -19 -13 -24 -6 -3 5 1
9 9 9 8 0 15 -2 15 -3z m-913 -46 c-3 -8 -6 -5 -6 6 -1 11 2 17 5 13 3 -3 4
-12 1 -19z m-51 -126 c-17 -16 -18 -16 -5 5 7 12 15 20 18 17 3 -2 -3 -12 -13
-22z m-5569 -114 c-3 -8 -6 -5 -6 6 -1 11 2 17 5 13 3 -3 4 -12 1 -19z m-2239
-19 c2 -14 -4 -31 -13 -39 -13 -11 -19 -10 -35 5 -35 32 -24 68 20 63 19 -2
26 -10 28 -29z m8372 17 c0 -2 -8 -10 -17 -17 -16 -13 -17 -12 -4 4 13 16 21
21 21 13z m-6143 -38 c-3 -8 -6 -5 -6 6 -1 11 2 17 5 13 3 -3 4 -12 1 -19z
m6113 -1 c0 -2 -10 -12 -22 -23 l-23 -19 19 23 c18 21 26 27 26 19z m-6123
-39 c-3 -8 -6 -5 -6 6 -1 11 2 17 5 13 3 -3 4 -12 1 -19z m-209 -26 c6 -18
-15 -14 -22 4 -4 10 -1 14 6 12 6 -2 14 -10 16 -16z m-1388 -103 c0 -6 -4 -7
-10 -4 -5 3 -10 11 -10 16 0 6 5 7 10 4 6 -3 10 -11 10 -16z m-538 -92 c-9
-26 -20 -47 -25 -47 -4 0 0 17 9 38 9 20 18 43 21 50 3 7 7 11 9 10 2 -2 -5
-25 -14 -51z m753 -128 c0 -15 -7 -25 -17 -27 -13 -3 -18 3 -18 21 0 13 3 27
7 31 13 12 28 -1 28 -25z m-48 -61 c3 -7 -8 -2 -25 10 -17 13 -35 28 -39 34
-3 7 8 2 25 -10 17 -13 35 -28 39 -34z m-39 -16 c20 -30 11 -28 -19 4 -13 15
-18 25 -10 22 8 -2 21 -14 29 -26z m6949 -74 c-3 -8 -6 -5 -6 6 -1 11 2 17 5
13 3 -3 4 -12 1 -19z m-7717 -38 c0 -5 -2 -10 -4 -10 -3 0 -8 5 -11 10 -3 6
-1 10 4 10 6 0 11 -4 11 -10z m971 -14 c-6 -7 -7 -17 -3 -22 4 -5 -3 0 -16 11
-22 18 -22 20 -5 26 24 9 37 0 24 -15z m6736 -28 c-3 -8 -6 -5 -6 6 -1 11 2
17 5 13 3 -3 4 -12 1 -19z m-12 -266 c-11 -11 -12 7 -6 128 l6 125 3 -124 c1
-68 0 -126 -3 -129z m282 226 c-3 -8 -6 -5 -6 6 -1 11 2 17 5 13 3 -3 4 -12 1
-19z m-7089 -18 c46 -21 56 -34 18 -24 -18 4 -27 1 -35 -15 -7 -12 -7 -22 -2
-26 9 -5 12 -45 3 -45 -1 0 -23 15 -47 33 -36 26 -44 38 -45 65 0 30 2 32 33
32 17 0 51 -9 75 -20z m7107 -381 c17 -88 20 -207 4 -229 -9 -12 -10 -11 -6 6
2 11 -1 28 -8 38 -12 15 -19 9 -73 -61 -33 -43 -70 -87 -82 -98 -13 -11 -3 6
23 37 63 78 95 136 102 183 4 22 2 98 -4 169 -7 96 -7 156 2 230 l12 101 7
-150 c4 -82 14 -184 23 -226z m555 328 c0 -2 -12 -14 -27 -28 l-28 -24 24 28
c23 25 31 32 31 24z m190 -25 c0 -5 -10 -17 -21 -28 -16 -14 -23 -16 -26 -6
-3 6 -9 10 -14 6 -5 -3 -9 -3 -9 0 0 6 51 35 63 36 4 0 7 -4 7 -8z m-250 -26
c0 -2 -8 -10 -17 -17 -16 -13 -17 -12 -4 4 13 16 21 21 21 13z m-7473 -96 c70
-35 66 -27 83 -170 14 -119 33 -162 118 -264 99 -120 104 -128 27 -51 -126
127 -156 147 -225 150 -33 1 -60 1 -60 0 0 -2 22 -18 50 -36 58 -37 60 -50 3
-21 -52 28 -118 98 -142 152 -21 48 -38 182 -27 223 16 66 63 71 173 17z
m7564 2 c-5 -10 -18 -25 -27 -33 -11 -9 -9 -2 6 19 26 35 36 42 21 14z m-2792
-106 c-17 -52 -37 -103 -45 -113 -8 -10 5 37 29 104 23 67 43 118 45 114 2 -5
-11 -52 -29 -105z m-4276 -84 c46 -46 49 -54 82 -180 34 -132 46 -163 72 -194
8 -9 16 -25 17 -35 2 -10 8 -18 14 -18 10 0 52 -48 52 -60 0 -4 17 -27 38 -51
22 -24 70 -87 108 -140 37 -53 91 -122 118 -153 34 -38 38 -45 13 -22 -20 19
-37 31 -37 27 0 -19 -36 24 -132 158 -155 215 -325 406 -361 406 -27 0 -66 55
-78 108 -16 77 8 202 40 202 4 0 28 -22 54 -48z m6792 -152 c-10 -101 -40
-144 -223 -317 -256 -243 -266 -252 -432 -388 -85 -70 -173 -144 -195 -164
l-40 -36 40 43 c22 24 99 91 170 150 265 217 579 523 617 602 12 26 23 72 26
109 4 63 4 63 -18 51 -15 -8 -38 -9 -69 -4 l-46 8 59 7 c39 4 65 13 79 28 l22
21 8 -27 c4 -16 5 -53 2 -83z m-1470 -76 c-182 -511 -516 -937 -972 -1240
-142 -94 -392 -217 -553 -272 -121 -41 -320 -93 -350 -91 -8 0 53 17 135 39
755 193 1380 726 1674 1428 27 64 62 154 78 199 15 46 29 79 31 74 2 -5 -18
-67 -43 -137z m859 74 c22 -32 20 -44 -20 -128 -19 -41 -38 -99 -42 -130 -8
-65 -25 -71 -58 -23 l-21 32 -42 -32 c-43 -33 -288 -307 -284 -318 1 -4 -7
-15 -17 -24 -11 -10 -20 -15 -20 -10 0 4 -8 1 -17 -6 -10 -7 -4 2 13 21 17 19
80 91 140 160 60 69 133 147 162 174 29 27 50 51 48 54 -7 6 -158 -129 -228
-203 -32 -35 -107 -105 -166 -156 l-107 -94 73 80 c40 44 99 103 131 130 32
28 73 68 92 90 22 26 25 32 8 18 -32 -29 -48 -30 -23 -1 l19 22 -29 -18 c-16
-10 18 28 75 85 58 57 133 140 168 184 57 72 103 115 123 115 4 0 14 -10 22
-22z m-6820 -73 c6 -17 -19 -45 -40 -45 -18 0 -18 10 2 38 18 26 30 28 38 7z
m-466 -39 c2 -16 -1 -33 -7 -39 -8 -8 -11 -2 -11 21 0 24 -4 30 -15 26 -15 -6
-21 7 -8 20 15 15 38 0 41 -28z m736 0 c23 -14 69 -55 101 -93 42 -49 48 -58
19 -32 -45 42 -84 65 -84 50 0 -6 -22 -21 -49 -34 -55 -26 -116 -26 -130 2
-16 31 -22 101 -10 123 10 18 17 20 61 15 28 -4 69 -17 92 -31z m-651 -73 c4
-38 6 -111 6 -163 l-1 -95 -12 55 c-8 40 -14 50 -19 37 -4 -10 -7 -28 -7 -39
0 -17 -4 -19 -27 -13 -15 3 -47 16 -72 28 -40 19 -48 29 -66 77 -19 51 -24 56
-69 71 -26 9 -58 28 -70 42 -33 39 -60 43 -85 10 -15 -20 -20 -23 -21 -11 -1
54 51 65 113 23 20 -14 57 -34 82 -45 37 -16 49 -28 65 -64 17 -41 22 -45 73
-57 85 -19 87 -17 87 106 0 118 14 140 23 38z m5100 34 c-187 -236 -424 -398
-703 -482 -192 -58 -463 -70 -653 -30 -283 59 -571 228 -749 439 l-51 61 69
-69 c221 -222 466 -357 759 -422 106 -23 326 -23 453 0 299 53 556 189 772
407 120 121 134 135 103 96z m-2243 -40 c0 -5 -8 -3 -17 4 -16 13 -17 12 -4
-3 7 -10 17 -16 21 -13 4 3 34 -25 65 -61 64 -73 188 -180 280 -242 63 -42
216 -124 300 -160 36 -15 42 -20 20 -16 -25 4 -23 1 15 -17 25 -12 50 -23 55
-25 235 -71 387 -80 641 -39 93 15 173 31 179 36 5 5 19 9 30 9 12 0 48 9 81
20 103 36 244 61 244 43 0 -12 -44 -98 -53 -101 -4 -2 -5 -8 -1 -13 3 -5 -2
-12 -10 -15 -9 -3 -14 -10 -11 -15 3 -4 -3 -13 -14 -18 -10 -6 -29 -27 -41
-46 -12 -19 -28 -35 -36 -35 -8 0 -11 -6 -7 -17 5 -12 2 -15 -10 -10 -11 4
-14 2 -10 -9 3 -8 -1 -14 -11 -14 -9 0 -16 -7 -16 -14 0 -13 9 -12 53 4 28 10
61 21 72 25 16 6 17 5 5 -4 -29 -21 -229 -81 -341 -101 -231 -42 -454 -37
-709 15 -150 31 -233 61 -415 150 -149 74 -282 164 -390 264 -89 82 -206 215
-201 228 3 7 0 15 -6 19 -7 4 -8 3 -4 -4 16 -27 -4 -10 -25 21 l-23 32 24 -20
c13 -11 21 -15 17 -9 -14 25 126 141 185 153 23 5 33 13 32 25 -2 16 -1 16 17
0 10 -9 19 -21 19 -27z m3333 18 c-3 -9 -8 -14 -10 -11 -3 3 -2 9 2 15 9 16
15 13 8 -4z m-6552 -88 c11 -21 24 -50 29 -65 10 -26 9 -26 -6 -7 -20 26 -50
83 -58 115 -9 31 5 14 35 -43z m416 11 c-3 -8 -6 -5 -6 6 -1 11 2 17 5 13 3
-3 4 -12 1 -19z m7861 -20 c-13 -51 -31 -74 -65 -83 -14 -3 -23 -8 -20 -11 6
-6 93 16 246 62 125 37 181 42 206 18 28 -28 -4 -95 -81 -170 -65 -64 -203
-137 -243 -128 -18 4 -22 3 -13 -4 18 -12 -23 -24 -58 -16 -20 5 -22 3 -10 -5
12 -9 9 -11 -15 -9 -16 1 -43 0 -60 -1 -30 -3 -30 -3 -5 -11 22 -7 23 -8 4 -9
-25 -1 -39 -16 -47 -52 -4 -14 -18 -31 -32 -37 -33 -15 -32 -16 -46 9 -9 17
-7 25 11 44 12 12 35 26 52 29 17 3 29 9 26 11 -10 10 -363 -86 -419 -114
-102 -51 -169 -103 -262 -203 -51 -54 -110 -110 -132 -125 -46 -29 -38 -19 21
29 23 18 73 70 113 115 74 85 188 170 292 217 30 14 106 39 169 57 107 30 175
59 105 45 -48 -10 -54 -1 -60 96 -4 46 -1 59 13 67 16 10 16 10 -1 11 -30 0
-91 -45 -162 -122 l-67 -73 45 61 c51 67 102 115 148 140 25 13 144 43 172 44
4 0 7 6 7 13 0 22 145 147 170 147 5 0 3 -19 -2 -42z m-1267 -15 c-12 -20 -14
-14 -5 12 4 9 9 14 11 11 3 -2 0 -13 -6 -23z m-5958 -48 c15 -17 49 -70 35
-55 -47 51 -88 101 -73 90 11 -8 28 -24 38 -35z m-405 -22 c5 -17 -26 -29 -40
-15 -6 6 -7 15 -3 22 9 14 37 9 43 -7z m6912 -6 c0 -2 -10 -12 -22 -23 l-23
-19 19 23 c18 21 26 27 26 19z m-6430 -109 c23 -67 31 -248 11 -272 -13 -15
-7 -87 11 -135 7 -20 6 -22 -5 -13 -11 9 -20 6 -43 -13 -16 -14 -36 -24 -45
-22 -37 10 -41 -10 -10 -44 17 -18 38 -48 46 -66 19 -40 27 -42 20 -5 -4 21
-2 19 9 -8 7 -20 14 -77 15 -130 1 -56 7 -100 14 -109 8 -9 13 -58 14 -133 3
-134 7 -127 -85 -143 -42 -7 -43 -6 -33 13 6 12 11 30 11 41 0 11 10 27 23 36
25 19 21 18 -46 -13 -71 -35 -135 -39 -209 -14 -35 11 -99 30 -143 42 -96 27
-161 58 -218 106 -23 20 -11 6 28 -30 38 -36 76 -66 85 -67 9 0 10 -3 3 -5
-16 -7 -76 26 -148 80 -33 25 -86 59 -117 76 -59 32 -118 92 -118 122 0 22 51
58 82 58 14 0 53 -17 88 -39 61 -36 65 -41 76 -90 7 -32 22 -64 40 -82 52 -54
201 -113 316 -124 24 -3 71 -8 106 -11 49 -5 72 -3 103 11 46 21 48 28 14 43
-14 6 -25 18 -25 26 0 19 26 38 47 34 15 -3 20 10 35 92 29 167 20 225 -47
287 -29 26 -35 39 -35 73 0 54 34 90 85 90 34 0 35 1 24 23 -7 12 -23 35 -35
50 -33 40 -30 68 11 106 40 36 40 35 20 90 -16 47 -12 53 9 14 l15 -28 0 30
c0 17 -8 50 -19 74 -22 48 -25 60 -10 45 6 -6 19 -35 30 -66z m-795 16 c-8
-16 -15 -24 -15 -18 0 15 25 65 28 55 1 -4 -4 -21 -13 -37z m7125 2 c0 -2 -8
-10 -17 -17 -16 -13 -17 -12 -4 4 13 16 21 21 21 13z m-7020 -51 c-7 -8 -16
-15 -21 -15 -5 0 -9 7 -9 15 0 9 9 15 21 15 18 0 19 -2 9 -15z m126 -20 c46
-23 93 -62 138 -113 15 -17 -4 -12 -92 26 -105 45 -132 66 -132 102 0 17 34
11 86 -15z m-293 -163 c2 -32 1 -48 -4 -40 -5 7 -8 36 -8 63 1 60 6 50 12 -23z
m403 -23 c8 -17 13 -36 11 -42 -3 -10 -47 62 -47 78 0 13 21 -8 36 -36z m1209
1 c10 -11 16 -20 13 -20 -3 0 -13 9 -23 20 -10 11 -16 20 -13 20 3 0 13 -9 23
-20z m2752 -36 c-3 -3 -12 -4 -19 -1 -8 3 -5 6 6 6 11 1 17 -2 13 -5z m2303
-33 c-18 -21 -71 -71 -118 -111 l-87 -72 75 68 c41 38 93 88 114 111 49 54 57
55 16 4z m-5733 7 c-3 -8 -6 -5 -6 6 -1 11 2 17 5 13 3 -3 4 -12 1 -19z m567
2 c5 -5 9 -24 10 -42 1 -27 10 -39 61 -77 33 -25 121 -106 195 -180 74 -74
110 -112 80 -86 -30 27 -84 78 -120 113 -66 66 -163 143 -212 168 l-28 14 12
-27 c7 -16 16 -33 20 -39 37 -50 138 -350 138 -408 0 -8 10 -27 23 -41 18 -22
34 -28 87 -33 54 -5 60 -7 35 -13 -49 -11 -132 -10 -159 2 -29 14 -44 50 -75
183 -28 121 -66 197 -145 288 -76 89 -83 118 -38 160 15 14 34 28 42 31 18 7
61 -1 74 -13z m2813 14 c-3 -3 -12 -4 -19 -1 -8 3 -5 6 6 6 11 1 17 -2 13 -5z
m3241 -18 c4 -20 -21 -46 -44 -46 -18 0 -28 51 -12 62 21 13 53 5 56 -16z
m157 14 c-3 -5 -12 -10 -18 -10 -7 0 -6 4 3 10 19 12 23 12 15 0z m-6135 -31
c0 -12 -27 -11 -35 1 -11 17 5 32 21 19 8 -6 14 -15 14 -20z m6100 21 c0 -5
-4 -10 -10 -10 -5 0 -10 5 -10 10 0 6 5 10 10 10 6 0 10 -4 10 -10z m-5159
-17 c13 -16 12 -17 -3 -4 -17 13 -22 21 -14 21 2 0 10 -8 17 -17z m4689 4 c0
-2 -15 -16 -32 -33 l-33 -29 29 33 c28 30 36 37 36 29z m-7002 -42 c-3 -3 -9
2 -12 12 -6 14 -5 15 5 6 7 -7 10 -15 7 -18z m739 -12 c-3 -10 -5 -4 -5 12 0
17 2 24 5 18 2 -7 2 -21 0 -30z m6567 -2 c67 -58 76 -59 169 -13 137 67 132
70 80 -60 -25 -62 -59 -150 -76 -196 -26 -70 -40 -93 -90 -142 -33 -33 -64
-58 -70 -57 -6 1 -11 -3 -12 -10 -2 -53 -167 -160 -190 -123 -3 5 -34 -8 -68
-29 -69 -42 -114 -60 -103 -42 4 6 12 11 18 11 6 0 32 12 56 26 43 25 44 28
26 41 -10 8 -18 19 -16 24 1 5 -6 9 -15 9 -13 0 -8 9 17 35 19 19 39 35 46 35
7 0 15 23 19 55 3 30 11 55 16 55 6 0 7 4 4 10 -3 5 12 29 35 54 31 34 37 45
25 50 -22 8 -18 27 16 74 20 27 25 40 15 36 -23 -9 -74 15 -82 38 -16 52 25
123 86 147 39 15 46 13 94 -28z m-6964 4 c29 -15 70 -60 70 -78 0 -11 -103 -2
-152 15 -52 17 -56 27 -25 54 32 28 65 30 107 9z m1730 -50 c13 -14 21 -25 18
-25 -2 0 -15 11 -28 25 -13 14 -21 25 -18 25 2 0 15 -11 28 -25z m331 -2 c13
-16 12 -17 -3 -4 -17 13 -22 21 -14 21 2 0 10 -8 17 -17z m-1382 -128 c70 -43
80 -55 21 -25 -51 26 -107 76 -126 111 -24 47 -16 46 15 -3 19 -30 50 -59 90
-83z m5522 68 c-37 -74 -70 -105 -116 -109 l-36 -2 43 28 c64 43 94 71 112
108 9 17 19 32 21 32 3 0 -8 -26 -24 -57z m1127 34 c3 -12 -1 -15 -13 -11 -10
4 -21 1 -26 -7 -7 -12 -9 -11 -9 2 0 35 42 49 48 16z m-6915 -41 c3 -30 1 -43
-4 -35 -8 13 -13 97 -5 88 2 -2 6 -26 9 -53z m3867 39 c-14 -8 -29 -14 -35
-14 -5 0 1 6 15 14 14 8 30 14 35 14 6 0 -1 -6 -15 -14z m-4842 -19 c2 -10 -2
-23 -9 -30 -9 -8 -10 -8 -5 2 5 8 0 12 -12 12 -24 0 -32 8 -25 27 8 20 47 12
51 -11z m2677 4 c10 -11 16 -20 13 -20 -3 0 -13 9 -23 20 -10 11 -16 20 -13
20 3 0 13 -9 23 -20z m4358 -46 c-31 -36 -73 -77 -93 -92 -19 -15 5 15 55 66
49 50 91 92 93 92 2 0 -23 -29 -55 -66z m-4839 40 c5 -14 4 -15 -9 -4 -17 14
-19 20 -6 20 5 0 12 -7 15 -16z m191 -54 c27 -27 47 -50 44 -50 -3 0 -27 23
-54 50 -27 28 -47 50 -44 50 3 0 27 -22 54 -50z m-1829 19 c3 -5 0 -8 -8 -7
-7 2 -12 -4 -10 -12 1 -10 -2 -9 -13 4 -8 11 -15 23 -15 27 0 10 39 -1 46 -12z
m140 -44 c17 -30 25 -55 22 -75 -2 -16 -1 -27 4 -24 4 3 8 0 8 -6 0 -20 -20
-49 -41 -61 -17 -9 -20 -8 -13 2 4 8 -5 4 -20 -9 -33 -26 -38 -24 -61 24 l-17
36 30 30 29 30 -23 23 c-31 31 -30 41 4 59 41 23 49 20 78 -29z m5764 42 c0
-2 -10 -12 -22 -23 l-23 -19 19 23 c18 21 26 27 26 19z m-5308 -121 c13 -21
39 -57 58 -78 34 -38 39 -40 135 -54 144 -21 145 -23 6 -17 l-123 6 -34 -37
c-19 -20 -38 -35 -43 -31 -11 6 -152 248 -164 280 -16 43 33 -31 90 -137 32
-58 61 -105 64 -102 3 2 9 31 12 64 6 53 4 67 -18 108 -14 26 -37 63 -51 82
-23 30 -21 29 9 -5 20 -22 46 -57 59 -79z m5118 101 c0 -2 -10 -12 -22 -23
l-23 -19 19 23 c18 21 26 27 26 19z m1048 -43 c12 -8 22 -26 22 -39 0 -24 -33
-55 -57 -55 -18 0 -53 37 -53 55 0 18 35 55 53 55 7 0 23 -7 35 -16z m-6292
-186 c26 -106 40 -142 63 -173 8 -11 0 -6 -17 12 -18 18 -32 38 -32 46 0 8
-13 66 -29 128 -41 156 -44 170 -26 124 9 -22 27 -84 41 -137z m5620 153 c-3
-5 -16 -11 -28 -14 -22 -6 -22 -5 -4 8 22 17 40 20 32 6z m-4150 -33 l29 -33
-32 29 c-31 28 -38 36 -30 36 2 0 16 -15 33 -32z m4084 2 c-8 -5 -19 -10 -25
-10 -5 0 -3 5 5 10 8 5 20 10 25 10 6 0 3 -5 -5 -10z m-5813 -30 c-3 -12 -1
-18 5 -14 5 3 9 -2 8 -12 -1 -11 -1 -22 0 -26 1 -5 3 -11 5 -15 1 -5 7 -21 14
-37 6 -16 9 -31 7 -33 -8 -8 -67 130 -62 144 9 21 29 15 23 -7z m711 8 c18
-18 14 -28 -11 -28 -29 0 -37 7 -30 26 6 17 25 18 41 2z m5512 8 c0 -2 -8 -10
-17 -17 -16 -13 -17 -12 -4 4 13 16 21 21 21 13z m1340 -40 l23 -25 -31 -30
c-17 -17 -40 -31 -51 -31 -30 0 -15 28 17 32 37 4 41 34 6 50 -25 12 -29 10
-70 -37 -24 -28 -44 -47 -44 -44 0 17 32 94 43 101 27 17 83 8 107 -16z
m-5755 -16 c10 -11 16 -20 13 -20 -3 0 -13 9 -23 20 -10 11 -16 20 -13 20 3 0
13 -9 23 -20z m4445 -22 c0 -34 -15 -25 -17 10 -2 26 1 32 7 22 5 -8 10 -23
10 -32z m-6527 10 c18 -11 49 -37 70 -57 30 -29 37 -42 36 -71 -2 -33 -2 -34
-6 -5 -6 38 -23 58 -23 26 0 -46 -51 -113 -79 -104 -26 9 -71 55 -64 66 3 6 1
7 -4 4 -10 -6 -38 18 -38 32 0 3 -3 5 -7 4 -3 -1 -12 4 -18 12 -10 12 -9 21 5
42 49 77 76 88 128 51z m6574 -10 c-3 -8 -6 -5 -6 6 -1 11 2 17 5 13 3 -3 4
-12 1 -19z m27 -19 c-11 -18 -26 -34 -34 -36 -12 -3 -11 -2 1 6 9 6 22 24 29
41 7 17 15 28 18 26 2 -3 -4 -20 -14 -37z m912 24 c-3 -10 -12 -62 -20 -116
-8 -53 -20 -105 -25 -115 -8 -13 -9 -9 -6 18 2 19 6 61 9 93 l5 59 -27 -7
c-15 -3 -63 -24 -107 -45 -73 -35 -87 -46 -148 -124 -37 -46 -89 -103 -114
-126 -158 -139 -416 -252 -505 -222 -33 11 -33 12 -3 8 78 -11 218 47 378 157
97 66 146 118 234 247 54 78 63 87 134 122 63 31 158 65 192 67 5 1 6 -7 3
-16z m-7266 -47 c0 -9 -40 -13 -46 -5 -3 5 6 9 20 9 14 0 26 -2 26 -4z m6248
-23 c-13 -7 -36 -12 -51 -13 -23 0 -26 2 -15 14 7 8 29 14 51 13 35 -1 36 -2
15 -14z m-4264 -35 c15 -24 -5 -42 -38 -34 -19 5 -26 13 -26 32 0 22 4 25 26
22 15 -2 32 -11 38 -20z m4941 -65 c-46 -60 -48 -61 -39 -39 7 17 5 17 -24 2
-17 -9 -35 -16 -39 -16 -4 1 8 10 28 20 20 11 52 35 70 54 46 49 48 38 4 -21z
m465 53 c0 -3 -4 -8 -10 -11 -5 -3 -10 -1 -10 4 0 6 5 11 10 11 6 0 10 -2 10
-4z m-1475 -36 c-5 -9 23 -15 48 -11 4 1 3 -7 -3 -18 -5 -11 -7 -27 -3 -37 4
-11 3 -15 -4 -11 -7 5 -9 0 -6 -13 8 -29 -33 -42 -70 -23 -23 11 -26 17 -17
33 8 14 8 20 0 20 -7 0 -7 6 1 21 10 19 9 20 -11 14 -22 -7 -22 -7 -3 13 18
20 80 31 68 12z m-3799 -31 c21 -12 31 -25 27 -35 -3 -7 -9 -14 -14 -14 -9 0
-10 3 -13 33 0 6 -8 12 -16 12 -8 0 -14 -6 -12 -13 1 -8 -2 -11 -8 -7 -8 5 -7
12 2 23 11 13 10 15 -4 9 -10 -3 -18 -2 -18 3 0 16 20 12 56 -11z m4205 -23
c9 -6 33 -26 53 -43 36 -33 37 -33 21 -64 -13 -24 -35 -39 -93 -65 -92 -41
-103 -47 -210 -112 -46 -28 -104 -58 -130 -68 -26 -9 -80 -30 -120 -45 -88
-35 -109 -36 -139 -7 -34 32 -118 35 -235 9 -138 -32 -205 -67 -302 -160 -46
-44 -95 -83 -110 -87 -18 -4 -57 5 -126 30 -154 55 -215 68 -355 76 l-130 7
132 1 c119 2 143 -1 250 -30 117 -31 185 -37 208 -18 6 5 14 7 18 4 3 -3 16 0
29 7 22 12 22 11 8 -7 -14 -18 -13 -18 10 1 14 11 30 24 35 30 16 16 98 79
127 98 45 28 169 65 272 82 111 18 150 30 293 91 57 24 106 44 109 44 18 0
124 54 124 63 0 6 10 22 23 36 17 21 18 23 2 10 -23 -19 -135 -64 -180 -74
-16 -3 5 8 49 24 92 36 152 69 185 105 13 14 28 23 33 20 5 -3 7 0 6 7 -2 6 3
14 11 17 9 3 11 0 6 -8 -5 -9 -4 -11 4 -6 6 4 9 12 5 17 -8 13 57 39 81 32 11
-3 27 -11 36 -17z m-5855 -97 c59 -44 92 -75 88 -82 -4 -7 -4 -9 1 -5 4 4 24
-2 44 -14 52 -31 60 -40 23 -27 -18 6 -38 9 -45 6 -14 -5 -292 39 -309 49 -24
15 21 23 127 22 65 0 116 -5 125 -12 13 -10 13 -9 1 7 -8 9 -16 16 -18 13 -2
-2 -21 11 -41 30 -20 18 -51 41 -69 51 -29 15 -43 33 -27 33 3 0 48 -32 100
-71z m637 54 c-7 -2 -21 -2 -30 0 -10 3 -4 5 12 5 17 0 24 -2 18 -5z m5921
-38 c-28 -68 -63 -114 -103 -134 -48 -25 -169 -56 -179 -46 -4 3 9 20 28 37
19 17 65 59 102 94 57 54 73 63 107 65 24 2 43 9 46 17 3 8 8 13 10 10 3 -3
-2 -22 -11 -43z m-7419 -5 c-3 -5 -1 -10 6 -10 7 0 10 -2 7 -5 -3 -3 -13 -2
-22 1 -14 5 -15 9 -4 15 17 11 20 11 13 -1z m92 -30 c13 0 23 -4 23 -9 0 -5
18 -12 40 -16 22 -4 40 -10 40 -14 0 -5 10 -13 23 -19 18 -9 19 -11 4 -11 -10
-1 -15 -5 -12 -11 8 -13 -1 -13 -26 1 -11 5 -16 15 -13 21 4 6 3 8 -4 4 -6 -3
-40 8 -76 26 -42 20 -61 35 -53 40 6 4 16 3 21 -2 6 -6 20 -10 33 -10z m5853
16 c0 -2 -8 -10 -17 -17 -16 -13 -17 -12 -4 4 13 16 21 21 21 13z m-1066 -92
c3 -8 2 -12 -4 -9 -6 3 -10 10 -10 16 0 14 7 11 14 -7z m-2773 -11 c13 -16 12
-17 -3 -4 -17 13 -22 21 -14 21 2 0 10 -8 17 -17z m-2365 -5 c4 -7 3 -8 -5 -4
-6 4 -18 2 -26 -4 -8 -7 -15 -8 -15 -3 0 23 33 32 46 11z m517 -5 c-7 -2 -19
-2 -25 0 -7 3 -2 5 12 5 14 0 19 -2 13 -5z m5897 -19 c-96 -28 -206 -46 -395
-68 -71 -9 -152 -23 -178 -32 -26 -9 -50 -14 -53 -12 -12 13 158 50 286 64
145 14 242 31 335 58 28 8 59 14 70 14 11 0 -18 -11 -65 -24z m1516 -24 c1
-24 0 -27 -3 -8 -4 24 -7 26 -34 18 -16 -5 -50 -27 -75 -49 -42 -37 -116 -71
-154 -71 -29 0 -53 25 -46 47 l6 20 40 -20 c50 -24 83 -13 120 39 32 45 67 64
110 61 33 -2 35 -4 36 -37z m-5479 -80 c38 -80 43 -182 13 -245 -44 -91 -177
-157 -353 -176 -56 -6 -199 -12 -317 -13 -175 -1 -217 -4 -226 -16 -7 -8 -9
-21 -6 -30 5 -12 3 -13 -10 -2 -13 10 -15 9 -11 -12 4 -17 10 -22 24 -19 10 3
19 1 19 -5 0 -14 -52 -11 -62 3 -5 6 -8 5 -8 -2 0 -9 -7 -10 -26 -3 -32 13
-43 13 -24 0 12 -7 8 -10 -14 -10 -63 0 -9 -12 250 -55 148 -25 274 -47 279
-49 6 -3 -15 -5 -45 -6 -45 -1 -51 -3 -32 -11 13 -5 30 -16 38 -24 34 -34 104
-75 128 -75 13 0 55 7 92 15 115 27 103 12 -19 -24 -112 -32 -153 -50 -84 -36
17 3 27 3 21 -2 -6 -4 -13 -16 -17 -25 -6 -18 -81 -43 -97 -33 -6 3 -10 0 -10
-7 0 -7 -18 7 -39 32 -21 25 -37 48 -34 53 2 4 1 6 -4 5 -17 -4 -53 14 -47 24
4 6 3 8 -3 5 -5 -4 -43 7 -82 24 -96 40 -192 59 -304 60 -105 1 -161 -10 -238
-46 -66 -30 -95 -32 -104 -5 -4 11 -17 27 -29 36 -59 38 -243 -53 -406 -200
-76 -68 -121 -89 -171 -79 -73 14 -77 84 -10 217 84 169 270 373 396 436 39
19 72 36 74 37 8 5 -32 56 -97 125 l-67 71 40 -7 c59 -11 171 -66 243 -120 70
-52 79 -74 30 -70 -18 2 -24 1 -14 -3 11 -3 54 -21 95 -40 123 -57 173 -71
312 -89 107 -13 148 -14 216 -5 46 5 91 8 101 5 13 -4 14 -3 4 4 -9 6 12 8 60
5 100 -6 306 20 356 46 80 41 132 128 153 255 8 48 8 47 4 -17 -10 -158 -102
-258 -258 -279 -40 -6 -124 -14 -187 -18 -102 -7 -94 -8 65 -4 112 2 199 8
230 17 245 68 302 243 153 472 l-20 30 26 -30 c15 -16 38 -55 53 -85z m-1677
74 c98 -18 236 -67 203 -72 -12 -2 -59 9 -105 23 -64 21 -108 28 -193 30
l-110 4 83 -10 c81 -9 115 -22 119 -46 2 -6 -18 -14 -48 -18 -33 -5 -69 -20
-108 -46 -67 -44 -61 -43 -98 -27 -15 6 -33 12 -40 14 -42 8 -89 76 -77 109 6
14 69 41 114 48 61 10 184 6 260 -9z m3677 -30 c-3 -3 -12 -4 -19 -1 -8 3 -5
6 6 6 11 1 17 -2 13 -5z m-64 -11 c-7 -2 -19 -2 -25 0 -7 3 -2 5 12 5 14 0 19
-2 13 -5z m-70 -10 c-7 -2 -19 -2 -25 0 -7 3 -2 5 12 5 14 0 19 -2 13 -5z
m-2445 -33 c48 -22 58 -36 11 -16 -27 11 -36 11 -73 -7 -56 -27 -86 -56 -87
-86 -1 -20 -3 -18 -10 12 -11 47 0 71 44 97 40 25 61 25 115 0z m-118 -155
c-1 -28 -7 -58 -15 -69 -14 -19 -15 -18 -15 16 0 19 3 56 6 82 9 60 24 41 24
-29z m537 53 c-3 -8 -6 -5 -6 6 -1 11 2 17 5 13 3 -3 4 -12 1 -19z m4776 -2
c4 4 18 -1 31 -10 30 -19 57 -21 74 -4 7 7 12 8 12 3 0 -4 9 0 19 9 14 13 11
1 -12 -43 -18 -34 -37 -61 -44 -61 -19 0 -82 59 -100 94 -14 26 -14 29 -1 19
8 -7 18 -10 21 -7z m1347 -10 c9 -12 5 -16 -27 -22 -62 -11 -92 -32 -131 -92
-30 -47 -37 -53 -40 -35 -12 80 152 203 198 149z m-5600 -51 c0 -5 -5 -3 -10
5 -5 8 -10 20 -10 25 0 6 5 3 10 -5 5 -8 10 -19 10 -25z m3895 25 c-3 -5 -11
-10 -16 -10 -6 0 -7 5 -4 10 3 6 11 10 16 10 6 0 7 -4 4 -10z m-3967 -32 c-2
-18 2 -34 7 -36 6 -1 39 -32 76 -68 36 -35 68 -62 71 -59 3 4 9 1 14 -6 5 -8
3 -10 -6 -4 -26 16 -4 -15 54 -75 68 -71 132 -105 176 -96 44 8 37 -1 -10 -14
-61 -16 -114 11 -208 111 -42 45 -106 111 -141 146 -50 51 -62 68 -57 86 3 12
6 28 6 35 0 6 5 12 10 12 6 0 10 -15 8 -32z m3322 17 c-30 -36 -69 -56 -87
-46 -15 8 -15 11 -3 12 8 1 20 3 25 4 6 2 16 3 24 4 8 0 11 4 8 8 -4 3 3 12
16 19 30 16 31 16 17 -1z m-4739 -20 c29 9 59 -4 69 -30 5 -13 43 -44 89 -73
l81 -49 -56 -18 c-60 -19 -130 -15 -188 9 -39 17 -116 99 -116 125 0 27 47 50
79 39 13 -5 32 -6 42 -3z m3484 -5 c-11 -5 -27 -9 -35 -9 -9 0 -8 4 5 9 11 5
27 9 35 9 9 0 8 -4 -5 -9z m-3630 -20 c10 -11 16 -20 13 -20 -3 0 -13 9 -23
20 -10 11 -16 20 -13 20 3 0 13 -9 23 -20z m796 3 c13 -16 12 -17 -3 -4 -17
13 -22 21 -14 21 2 0 10 -8 17 -17z m883 -58 c20 -38 29 -61 20 -50 -17 22
-64 110 -64 121 0 11 3 6 44 -71z m1893 59 c-3 -3 -12 -4 -19 -1 -8 3 -5 6 6
6 11 1 17 -2 13 -5z m-52 -14 c-11 -5 -29 -8 -40 -8 -16 0 -15 2 5 8 34 11 60
11 35 0z m-72 -17 c-7 -2 -19 -2 -25 0 -7 3 -2 5 12 5 14 0 19 -2 13 -5z
m1310 0 c-7 -2 -19 -2 -25 0 -7 3 -2 5 12 5 14 0 19 -2 13 -5z m-1360 -10 c-7
-2 -19 -2 -25 0 -7 3 -2 5 12 5 14 0 19 -2 13 -5z m2448 -33 c-29 -25 -37 -27
-63 -18 -36 13 -30 20 30 34 69 17 70 16 33 -16z m-3734 4 c-3 -3 -12 -4 -19
-1 -8 3 -5 6 6 6 11 1 17 -2 13 -5z m-2949 -56 c-5 -32 -28 -35 -28 -4 0 17 5
26 16 26 10 0 14 -7 12 -22z m3149 6 c-3 -3 -12 -4 -19 -1 -8 3 -5 6 6 6 11 1
17 -2 13 -5z m-1494 -31 c-7 -2 -19 -2 -25 0 -7 3 -2 5 12 5 14 0 19 -2 13 -5z
m507 -13 c15 8 20 6 26 -13 3 -12 14 -30 23 -41 13 -15 6 -14 -36 8 -58 29
-72 44 -52 57 9 6 15 4 17 -6 3 -11 8 -12 22 -5z m4338 14 c18 -5 22 -13 22
-43 0 -48 5 -53 40 -33 23 13 26 19 17 31 -10 12 -9 12 11 2 29 -16 24 -32
-15 -52 l-32 -16 32 -33 32 -33 -45 31 c-25 17 -72 58 -105 91 l-59 61 39 0
c22 0 50 -3 63 -6z m-4931 -10 c-3 -3 -12 -4 -19 -1 -8 3 -5 6 6 6 11 1 17 -2
13 -5z m156 -1 c-7 -2 -19 -2 -25 0 -7 3 -2 5 12 5 14 0 19 -2 13 -5z m4596
-25 c11 -10 13 -10 7 0 -19 33 27 4 97 -62 l78 -74 -29 -21 -30 -21 -28 43
c-15 23 -50 66 -77 94 -28 29 -46 53 -40 53 5 0 15 -6 22 -12z m-781 -111 c-9
-27 -155 -87 -286 -117 l-132 -31 -83 17 c-103 21 -113 29 -22 19 84 -10 119
-8 163 6 l34 11 -20 22 c-11 11 -32 44 -47 71 -16 28 -35 59 -44 70 l-16 20
24 -20 c28 -24 106 -26 259 -6 92 12 101 15 91 30 -7 9 9 -5 35 -32 26 -26 46
-53 44 -60z m-3533 65 c-23 -5 -45 -22 -27 -22 6 0 20 -9 30 -20 26 -28 164
-62 210 -51 53 11 87 5 177 -36 44 -19 154 -68 245 -107 355 -156 437 -210
547 -360 23 -33 51 -61 60 -63 65 -14 65 -14 18 47 -90 118 -176 185 -339 266
-207 104 -213 113 -13 20 144 -67 218 -121 346 -251 62 -64 116 -114 119 -111
3 3 12 0 21 -7 14 -11 15 -10 1 8 -8 11 -37 47 -64 80 -41 51 -37 47 30 -22
77 -80 185 -177 137 -122 l-23 25 48 13 c26 8 53 18 60 24 6 5 12 6 12 2 0 -5
9 0 20 10 17 15 24 16 50 5 52 -21 120 -123 120 -178 0 -24 7 -32 41 -47 22
-11 73 -52 112 -92 39 -40 75 -73 79 -73 10 0 38 -27 62 -61 10 -13 16 -16 13
-7 -3 9 -2 18 3 20 15 5 -33 98 -88 169 -50 66 -55 83 -38 136 4 12 9 32 11
44 3 12 10 27 17 33 7 6 9 7 5 2 -8 -11 22 -48 33 -41 4 3 14 -3 21 -12 10
-12 10 -14 2 -9 -18 10 -16 -9 2 -24 13 -11 14 -10 9 4 -7 19 6 21 26 4 8 -7
6 -3 -4 10 -30 35 -13 35 30 -1 21 -18 60 -48 86 -65 43 -30 48 -31 57 -15 7
14 3 25 -14 45 -13 15 -26 24 -31 20 -4 -4 -4 -2 -1 4 7 13 -55 73 -76 75 -7
1 -32 2 -56 3 -42 1 -43 2 -62 52 -24 64 -77 119 -143 150 -48 22 -108 34 -78
16 10 -7 8 -12 -5 -25 -50 -45 -158 -51 -234 -12 -27 13 -55 22 -63 19 -12 -4
-66 54 -66 72 0 4 10 -6 22 -22 25 -32 40 -45 46 -39 3 2 -8 18 -22 36 -30 36
-66 102 -66 121 0 7 8 3 18 -9 12 -16 26 -22 47 -20 18 2 35 -3 42 -13 12 -15
-20 88 -51 165 -13 32 -13 36 -1 21 8 -11 22 -40 31 -65 42 -114 52 -131 90
-147 20 -8 44 -12 53 -8 9 4 27 9 41 10 14 2 37 6 52 10 19 4 37 1 54 -11 15
-9 23 -12 20 -6 -10 15 7 14 25 -1 7 -7 -24 28 -71 77 -65 69 -71 77 -25 35
33 -31 76 -69 95 -85 34 -29 33 -28 -5 14 -23 25 -31 39 -20 33 11 -6 29 -20
40 -32 11 -12 29 -27 40 -33 19 -10 19 -9 5 9 -8 10 32 -24 90 -76 143 -131
229 -200 246 -200 9 0 13 -4 9 -9 -3 -5 0 -13 6 -17 8 -4 9 -3 5 4 -5 8 0 12
12 12 13 0 30 17 48 48 l29 47 6 -35 6 -35 2 37 c1 25 -12 62 -39 115 -22 43
-31 67 -20 53 49 -62 65 -111 70 -224 l5 -110 72 -2 c43 -1 80 -7 90 -15 10
-7 5 1 -11 19 -39 43 -25 41 30 -4 24 -20 44 -32 44 -26 0 6 -5 14 -10 17 -6
4 -8 10 -5 15 3 4 -18 25 -45 46 -28 21 -50 40 -50 41 0 10 51 -27 132 -97 61
-52 96 -76 103 -70 6 5 22 8 34 5 18 -3 20 -1 12 9 -6 7 -8 15 -6 18 3 3 -19
28 -50 57 -52 47 -100 80 -272 189 -41 26 -77 57 -91 80 -12 20 -29 48 -38 62
-9 14 0 7 20 -15 20 -22 33 -31 29 -21 -5 15 -3 17 7 11 10 -6 12 -4 6 10 -5
15 -4 16 8 6 8 -7 17 -8 20 -3 5 9 -43 58 -129 130 -38 32 -38 32 15 -4 30
-20 71 -49 90 -63 33 -24 34 -24 15 -3 -11 13 -15 23 -10 22 37 -8 55 1 55 28
l1 27 21 -30 c38 -52 242 -255 247 -246 7 9 86 23 149 25 l43 1 -48 43 -48 44
56 -44 c31 -23 88 -69 127 -101 l69 -57 56 25 c31 13 90 33 131 43 66 18 77
18 98 5 13 -8 11 -4 -7 12 -45 39 -184 103 -238 109 -44 5 -51 3 -79 -24 l-30
-31 -43 40 c-52 48 -82 64 -160 86 -33 10 -69 23 -80 29 -20 11 -25 12 -55 15
-13 1 -13 3 1 11 10 6 42 1 95 -14 78 -23 194 -42 194 -33 0 3 -44 15 -97 28
-121 27 -196 49 -190 55 2 2 60 -9 128 -25 68 -16 165 -32 215 -35 106 -7 183
-26 269 -64 92 -40 218 -117 287 -174 35 -29 57 -45 50 -36 -8 10 -9 19 -3 22
11 7 143 -106 153 -132 4 -11 7 -12 7 -3 1 21 -63 104 -134 169 -74 70 -192
137 -318 181 -88 31 -515 140 -552 142 -11 0 -15 3 -8 6 30 12 411 -82 591
-145 171 -61 271 -130 383 -264 41 -49 50 -56 56 -41 4 10 42 81 85 159 89
161 103 194 94 230 -4 15 -53 74 -109 132 -113 118 -105 119 16 3 90 -87 122
-139 113 -184 -3 -17 -34 -78 -67 -135 -91 -156 -124 -232 -110 -255 17 -27
27 -117 13 -117 -7 0 -10 -15 -8 -35 2 -29 -2 -36 -18 -41 -51 -12 -70 0 -132
81 -34 45 -75 95 -92 112 l-31 31 -83 -43 c-46 -24 -134 -64 -195 -91 -62 -26
-113 -53 -113 -60 0 -7 15 -66 34 -131 19 -65 42 -155 52 -200 17 -80 17 -83
-1 -103 -18 -20 -60 -26 -82 -12 -7 4 -35 58 -62 120 -51 115 -152 282 -170
282 -6 0 -35 -9 -66 -21 -38 -14 -55 -26 -55 -38 0 -21 -26 -46 -56 -55 -17
-5 -27 0 -43 20 l-22 28 -187 -37 c-103 -20 -221 -41 -262 -47 -41 -6 -75 -12
-77 -14 -2 -1 10 -38 26 -82 51 -141 60 -274 18 -274 -31 0 -45 34 -49 120 -3
55 -12 105 -26 141 -37 94 -30 91 -162 79 -63 -5 -161 -10 -218 -10 l-102 0
-28 -57 c-21 -46 -32 -59 -52 -61 -37 -4 -74 39 -73 83 1 20 -4 35 -10 35 -85
1 -423 48 -585 81 -56 12 -105 19 -108 17 -2 -3 -12 -43 -20 -89 -17 -90 -30
-111 -84 -139 -66 -33 -107 -40 -131 -21 -23 18 -23 14 29 146 10 28 22 69 25
91 l5 42 -97 27 c-53 14 -141 44 -195 65 l-100 39 -48 -45 c-53 -49 -138 -93
-196 -101 -29 -4 -41 0 -56 16 -18 20 -17 21 23 96 22 42 41 81 41 86 0 5 -40
29 -88 53 l-89 45 -44 -45 c-55 -55 -112 -70 -124 -34 -5 15 2 38 19 72 30 57
32 73 10 64 -8 -3 -12 -2 -9 4 3 6 12 10 18 10 39 0 128 58 204 132 76 74 85
80 99 66 14 -14 14 -18 0 -46 -18 -35 -21 -56 -6 -47 5 3 15 -3 22 -14 12 -19
13 -19 32 -3 18 16 18 16 7 -5 -15 -29 -14 -110 2 -116 10 -3 61 16 76 29 2 2
-1 10 -7 17 -16 18 52 131 99 167 24 17 30 19 19 6 -14 -18 -13 -19 12 -14 19
4 25 1 21 -9 -3 -7 -8 -11 -12 -9 -4 3 -7 -3 -8 -12 -3 -44 -8 -60 -15 -56 -4
3 -9 0 -9 -5 -1 -6 -2 -15 -3 -19 0 -4 -16 -26 -33 -49 -34 -42 -42 -60 -21
-47 7 4 2 -9 -10 -30 -12 -20 -16 -34 -10 -29 7 4 22 7 34 8 12 0 34 16 50 34
40 48 59 67 140 136 113 97 115 95 8 -7 -87 -83 -196 -206 -138 -156 12 10 24
18 27 18 4 0 15 7 25 15 44 40 114 85 122 80 5 -3 11 -1 15 5 10 16 185 135
250 169 69 37 64 33 -94 -71 -64 -42 -141 -103 -171 -135 -30 -32 -39 -44 -20
-28 82 71 93 79 87 69 -10 -17 -10 -175 -1 -184 10 -10 84 18 84 31 0 4 -6 14
-14 22 -8 8 -19 49 -23 91 l-9 78 38 24 c21 13 56 35 78 49 l40 25 4 -22 c3
-13 8 -41 12 -63 l7 -40 13 40 c7 22 18 58 23 80 9 35 15 41 43 44 52 7 166 7
173 -1 10 -9 -56 -146 -105 -218 -24 -35 -37 -59 -30 -55 7 4 4 -4 -5 -19 -17
-25 -34 -38 -19 -14 4 7 3 8 -5 4 -6 -4 -9 -12 -6 -17 3 -5 -19 -51 -50 -102
-38 -64 -54 -100 -49 -113 4 -14 3 -16 -4 -5 -8 11 -12 10 -21 -7 -16 -30 -14
-39 4 -16 8 10 15 15 15 10 0 -5 9 -1 19 8 11 10 24 15 30 12 5 -4 12 -2 16 4
4 6 10 8 15 5 5 -3 19 11 30 32 15 28 19 32 15 13 -3 -17 0 -14 11 10 26 57
81 126 137 171 l52 43 -50 -55 c-76 -82 -85 -94 -91 -124 -5 -26 -2 -25 39 21
26 28 85 73 141 107 99 59 117 67 97 43 -14 -17 -4 -46 15 -46 20 0 30 29 17
49 -8 13 -4 16 25 19 22 1 42 -4 55 -15 20 -18 20 -18 2 17 -52 104 -121 203
-178 257 -66 62 -183 128 -312 178 -38 15 -137 59 -220 98 l-150 72 -95 1
c-57 1 -127 10 -175 22 -44 11 -92 23 -107 26 -35 8 -54 41 -37 63 17 19 51
33 64 25 6 -4 1 -8 -10 -10z m4268 -17 c21 -15 127 -136 127 -145 0 -8 -124
-112 -178 -149 l-34 -23 -38 37 c-24 24 -36 43 -33 53 4 10 2 13 -5 8 -6 -3
-14 -2 -17 4 -4 6 -1 9 6 8 8 -2 13 12 15 42 3 54 32 125 67 162 26 28 52 29
90 3z m1023 -6 c5 -8 -5 -9 -34 -4 -38 6 -44 4 -84 -32 -60 -55 -122 -100
-117 -86 2 6 36 39 74 72 61 51 76 60 112 60 23 1 45 -4 49 -10z m-5377 -33
c9 -11 5 -15 -21 -20 -33 -7 -55 5 -44 23 10 15 51 14 65 -3z m1987 -67 c27
-11 59 -25 71 -31 17 -8 33 -8 58 -1 46 14 51 3 16 -31 l-29 -28 -53 35 c-30
19 -70 44 -89 55 -44 27 -36 28 26 1z m-1956 -14 l75 -14 -142 2 c-124 2 -145
4 -160 21 -18 18 -16 18 67 11 47 -4 119 -13 160 -20z m924 -4 c-2 -3 -12 3
-22 13 -16 17 -16 18 5 5 12 -7 20 -15 17 -18z m3901 -30 c33 -1 63 -6 67 -9
4 -4 -22 -5 -57 -4 -71 4 -78 -2 -42 -42 18 -21 32 -26 80 -27 52 -2 57 -4 57
-26 0 -22 -4 -23 -66 -23 -59 0 -66 2 -72 22 -3 12 -17 45 -32 74 -19 39 -22
51 -11 45 9 -4 43 -9 76 -10z m-3736 -38 c10 -8 11 -12 4 -13 -13 0 -43 38
-43 55 0 5 6 1 12 -10 6 -11 19 -25 27 -32z m412 30 c13 -16 12 -17 -3 -4 -17
13 -22 21 -14 21 2 0 10 -8 17 -17z m1401 -8 c83 1 85 0 50 -12 -50 -17 -86
-15 -152 7 -31 11 -39 16 -20 12 19 -4 74 -7 122 -7z m-276 -4 c-4 -5 0 -11 6
-14 7 -2 10 -7 7 -11 -11 -12 -63 -9 -104 7 l-40 15 55 4 c30 3 61 5 68 6 7 1
11 -2 8 -7z m1924 -36 c0 -7 -7 -19 -16 -26 -14 -12 -20 -9 -40 16 -13 17 -24
35 -24 40 1 6 7 2 14 -7 7 -10 16 -15 20 -11 4 4 11 1 16 -7 5 -8 12 -11 16
-7 4 4 -1 17 -12 29 l-19 23 23 -19 c12 -11 22 -25 22 -31z m-5420 -25 c8 -5
11 -10 5 -10 -5 0 -17 5 -25 10 -8 5 -10 10 -5 10 6 0 17 -5 25 -10z m186 -32
c44 -6 90 -21 119 -38 l48 -28 -61 -47 c-50 -39 -62 -54 -72 -93 -11 -38 -37
-101 -78 -186 -3 -5 1 -5 8 -1 7 4 2 -6 -11 -24 -26 -35 -31 -39 -22 -13 4 9
-12 -1 -35 -22 -23 -22 -40 -42 -37 -44 2 -3 11 1 20 8 8 7 15 9 15 4 0 -4 10
2 23 13 12 11 35 23 50 27 16 4 40 18 53 31 14 14 28 25 32 25 4 0 13 9 20 20
15 25 44 27 36 3 -3 -10 2 -7 11 7 l16 25 -7 -24 c-9 -35 9 -18 35 32 27 52
102 146 128 161 10 5 1 -9 -19 -32 -21 -23 -60 -86 -87 -141 -28 -54 -61 -108
-75 -119 -14 -11 -63 -34 -108 -52 -181 -72 -424 -205 -597 -326 -35 -24 -66
-44 -70 -44 -4 0 -16 6 -27 14 -19 14 -18 15 6 41 42 46 133 112 276 201 75
47 164 106 198 132 46 36 56 40 41 20 -11 -15 -23 -28 -27 -28 -4 0 -13 -6
-20 -12 -15 -15 -68 -50 -256 -172 -73 -47 -131 -90 -128 -95 3 -5 -2 -8 -11
-7 -10 0 -18 -4 -18 -11 0 -6 -4 -15 -9 -20 -5 -5 -6 -2 -1 6 5 10 4 12 -4 7
-6 -4 -8 -12 -5 -18 5 -7 1 -9 -9 -5 -10 3 -17 2 -17 -3 0 -6 6 -10 13 -10 11
0 232 142 327 210 19 14 42 25 50 25 15 0 154 69 177 87 27 22 0 27 -30 6 -17
-12 -27 -16 -22 -8 5 8 -19 -8 -54 -34 -88 -68 -87 -50 1 22 133 108 181 173
225 302 28 80 28 82 9 96 -16 11 -22 11 -28 1 -5 -8 -8 -5 -8 8 0 24 -60 86
-116 121 l-39 24 50 -6 c28 -2 82 -10 121 -16z m681 6 c-3 -3 -12 -4 -19 -1
-8 3 -5 6 6 6 11 1 17 -2 13 -5z m2638 -42 c-3 -3 -11 0 -18 7 -9 10 -8 11 6
5 10 -3 15 -9 12 -12z m1430 -2 c-3 -5 -1 -10 4 -10 6 0 11 5 11 12 0 6 7 4
18 -5 23 -21 39 -22 22 -2 -22 26 -4 16 21 -12 18 -20 19 -24 4 -13 -18 14
-19 14 -7 -2 8 -9 20 -14 28 -11 19 7 18 -6 -3 -29 -21 -23 -40 -24 -22 0 13
15 12 16 -3 3 -10 -7 -16 -17 -13 -21 3 -5 -5 -16 -17 -24 -22 -16 -23 -15
-39 46 -16 57 -17 78 -3 78 3 0 2 -4 -1 -10z m-1385 -10 c8 -5 11 -10 5 -10
-5 0 -17 5 -25 10 -8 5 -10 10 -5 10 6 0 17 -5 25 -10z m-1940 -13 c0 -1 -24
-25 -52 -52 l-53 -50 50 53 c46 48 55 57 55 49z m1105 -57 c10 -11 16 -20 13
-20 -3 0 -13 9 -23 20 -10 11 -16 20 -13 20 3 0 13 -9 23 -20z m3245 -21 c0
-6 -5 -7 -11 -3 -6 3 -15 0 -20 -7 -7 -11 -9 -11 -9 3 0 17 19 29 33 21 4 -2
7 -9 7 -14z m-4790 7 c0 -2 -8 -10 -17 -17 -16 -13 -17 -12 -4 4 13 16 21 21
21 13z m3497 -49 c-7 -22 -27 -18 -37 8 -14 38 -1 53 22 25 10 -13 17 -28 15
-33z m-2546 26 c13 -16 12 -17 -3 -4 -17 13 -22 21 -14 21 2 0 10 -8 17 -17z
m-441 -8 c0 -2 -10 -9 -22 -15 -22 -11 -22 -10 -4 4 21 17 26 19 26 11z m501
-62 c13 -16 12 -17 -3 -4 -17 13 -22 21 -14 21 2 0 10 -8 17 -17z m-1148 -45
c-43 -65 -39 -62 -49 -47 -5 8 -3 10 5 5 8 -5 11 -3 10 5 -2 11 57 89 67 89 2
0 -13 -24 -33 -52z m-338 -43 c-22 -19 -66 -49 -98 -67 -113 -64 -130 -81
-170 -161 -37 -75 -56 -93 -113 -111 -27 -8 -54 16 -54 48 0 12 13 40 29 62
16 21 46 71 66 109 21 39 35 58 31 42 -4 -15 -20 -50 -37 -77 -16 -27 -32 -57
-34 -67 -2 -10 -6 -26 -10 -35 -9 -22 -2 -22 41 -2 18 9 42 30 53 48 32 52 81
92 171 142 47 25 101 59 120 75 49 40 53 35 5 -6z m3995 -13 c0 -18 -18 -42
-31 -42 -13 0 -19 33 -8 46 16 20 39 17 39 -4z m271 -59 c13 -16 12 -17 -3 -4
-17 13 -22 21 -14 21 2 0 10 -8 17 -17z m-4851 -67 c0 -2 -8 -10 -17 -17 -16
-13 -17 -12 -4 4 13 16 21 21 21 13z m5248 -53 c-10 -12 -13 -12 -20 1 -13 23
0 40 18 25 11 -9 12 -15 2 -26z m-2523 -23 c27 -27 47 -50 44 -50 -3 0 -27 23
-54 50 -27 28 -47 50 -44 50 3 0 27 -22 54 -50z m836 -27 c13 -16 12 -17 -3
-4 -10 7 -18 15 -18 17 0 8 8 3 21 -13z m1535 -164 c121 -121 122 -121 138
-42 6 25 4 32 -11 36 -14 4 -13 5 5 6 19 1 22 -4 22 -41 0 -24 -5 -60 -11 -81
-16 -60 -42 -47 -110 53 -32 47 -88 114 -126 149 -37 36 -57 57 -43 48 14 -9
75 -67 136 -128z m79 3 c-3 -3 -11 0 -18 7 -9 10 -8 11 6 5 10 -3 15 -9 12
-12z m-4550 -126 c41 -30 -22 -109 -67 -85 -27 14 -22 54 8 78 32 25 34 25 59
7z m3059 -119 c28 -37 33 -66 14 -85 -19 -19 -44 -14 -77 13 -39 34 -48 61
-25 86 26 29 59 24 88 -14z m-534 -137 c11 0 27 -12 36 -26 16 -23 16 -26 1
-41 -15 -15 -18 -15 -38 3 -22 20 -59 85 -59 105 0 6 9 0 21 -15 11 -14 29
-26 39 -26z m-1836 -2 c21 -29 20 -51 -1 -75 -10 -10 -15 -14 -10 -9 9 13 9
54 -1 60 -9 6 -22 -2 -41 -27 -12 -15 -11 -20 5 -40 l18 -22 -24 22 -24 23 22
45 c25 51 34 55 56 23z m2133 -85 c31 -34 63 -96 63 -122 0 -27 -26 -51 -55
-51 -18 0 -34 14 -60 52 -37 56 -42 81 -23 123 15 33 43 32 75 -2z"/>
<path d="M2671 8564 c0 -11 3 -14 6 -6 3 7 2 16 -1 19 -3 4 -6 -2 -5 -13z"/>
<path d="M2683 8500 c0 -25 2 -35 4 -22 2 12 2 32 0 45 -2 12 -4 2 -4 -23z"/>
<path d="M2710 8486 c0 -3 -7 -37 -15 -76 -11 -53 -12 -77 -4 -92 6 -11 13
-17 16 -14 8 8 16 186 9 186 -3 0 -6 -2 -6 -4z"/>
<path d="M3384 8445 c-11 -27 3 -40 71 -67 l67 -27 -6 41 c-4 23 -12 48 -18
55 -15 19 -107 17 -114 -2z"/>
<path d="M3114 8326 c1 -8 5 -18 8 -22 4 -3 5 1 4 10 -1 8 -5 18 -8 22 -4 3
-5 -1 -4 -10z"/>
<path d="M2610 8282 c0 -24 21 -63 30 -57 5 3 7 0 4 -8 -3 -8 2 -20 11 -27 24
-20 29 -5 9 27 -30 48 -54 76 -54 65z"/>
<path d="M3113 8273 c11 -12 19 -13 33 -4 19 11 18 12 -24 16 -21 2 -22 1 -9
-12z"/>
<path d="M2960 8211 c0 -13 30 -35 37 -27 3 3 1 6 -6 6 -7 0 -10 4 -7 9 3 5
-1 11 -9 15 -8 3 -15 2 -15 -3z"/>
<path d="M3755 8061 c-3 -5 -2 -12 3 -15 5 -3 9 1 9 9 0 17 -3 19 -12 6z"/>
<path d="M3245 7963 c-101 -101 -130 -144 -115 -172 6 -12 14 -21 18 -20 6 0
100 110 180 210 31 40 34 59 8 59 -7 0 -48 -35 -91 -77z"/>
<path d="M2680 7884 c0 -14 54 -90 72 -100 7 -4 3 4 -8 17 -12 13 -31 40 -43
59 -11 19 -21 30 -21 24z"/>
<path d="M3910 7787 c0 -2 15 -16 33 -33 l32 -29 -29 33 c-28 30 -36 37 -36
29z"/>
<path d="M2991 7535 c1 -11 -1 -27 -4 -35 -4 -8 -17 -44 -30 -80 -13 -36 -28
-74 -32 -85 -15 -39 60 53 87 107 29 58 43 97 32 85 -4 -4 -13 -2 -21 4 -7 6
-13 8 -13 3 0 -5 -5 -2 -11 6 -8 12 -10 12 -8 -5z"/>
<path d="M1118 7351 c-34 -27 -62 -102 -62 -166 0 -86 85 -202 187 -254 l59
-30 -3 92 c-3 84 -6 95 -31 125 -39 45 -76 122 -84 172 -4 23 -14 50 -23 61
l-16 20 -27 -20z"/>
<path d="M901 6825 c0 -5 6 -19 14 -29 8 -11 15 -15 15 -10 0 6 -7 19 -15 30
-8 10 -14 15 -14 9z"/>
<path d="M1341 6673 c-1 -25 43 -169 69 -228 18 -39 60 -88 60 -69 0 5 -9 44
-20 86 -21 83 -39 125 -75 173 -12 17 -24 37 -28 45 -4 10 -6 8 -6 -7z"/>
<path d="M1060 6546 c0 -2 8 -10 18 -17 15 -13 16 -12 3 4 -13 16 -21 21 -21
13z"/>
<path d="M1802 6285 c-17 -37 -14 -45 4 -12 9 16 14 31 11 33 -2 2 -9 -7 -15
-21z"/>
<path d="M836 6261 c-4 -5 13 -25 36 -45 31 -27 44 -33 50 -24 12 20 10 24
-32 52 -44 29 -46 30 -54 17z"/>
<path d="M1104 6143 c-5 -19 0 -40 17 -72 29 -53 47 -66 81 -58 46 12 42 35
-19 98 -31 32 -60 59 -64 59 -5 0 -12 -12 -15 -27z"/>
<path d="M831 5400 c14 -31 19 -36 19 -24 0 6 -7 19 -16 30 -14 18 -14 18 -3
-6z"/>
<path d="M876 5311 c10 -11 72 -27 63 -17 -4 4 -21 11 -39 16 -20 6 -30 6 -24
1z"/>
<path d="M950 5286 c0 -2 36 -19 81 -37 44 -18 90 -43 102 -54 12 -12 38 -27
57 -35 19 -7 49 -25 65 -40 17 -15 45 -37 63 -49 l32 -22 0 24 c0 56 -19 81
-91 120 -39 22 -73 36 -76 33 -4 -3 0 -6 7 -6 7 0 11 -2 8 -5 -3 -3 -53 12
-112 35 -96 36 -136 47 -136 36z"/>
<path d="M1636 5062 c-2 -4 4 -18 14 -32 l18 -24 -5 27 c-6 29 -18 43 -27 29z"/>
<path d="M827 5039 c19 -20 20 -28 10 -39 -10 -12 -9 -12 4 -2 12 9 18 9 27 0
6 -6 14 -9 17 -6 3 3 -13 21 -37 39 -33 25 -38 27 -21 8z"/>
<path d="M843 4912 c-8 -5 1 -8 22 -8 21 0 30 3 22 8 -6 4 -16 8 -22 8 -5 0
-16 -4 -22 -8z"/>
<path d="M1820 4876 c0 -2 8 -10 18 -17 15 -13 16 -12 3 4 -13 16 -21 21 -21
13z"/>
<path d="M616 4485 c12 -58 62 -107 119 -119 l30 -6 -27 20 c-15 12 -50 47
-78 78 -47 53 -50 55 -44 27z"/>
<path d="M888 4353 c7 -3 16 -2 19 1 4 3 -2 6 -13 5 -11 0 -14 -3 -6 -6z"/>
<path d="M6926 6602 c-3 -5 17 -34 45 -63 50 -53 51 -53 16 -8 -20 26 -34 49
-31 51 2 3 -2 11 -10 17 -8 7 -17 8 -20 3z"/>
<path d="M7149 6316 c21 -29 51 -43 51 -25 0 5 -7 9 -16 9 -9 0 -12 5 -8 13 4
6 3 9 -1 4 -5 -4 -18 1 -29 10 -17 16 -17 14 3 -11z"/>
<path d="M7730 6002 c-38 -79 -150 -338 -150 -346 0 -5 10 -36 22 -68 l21 -60
28 75 c23 66 72 169 115 247 7 14 18 24 24 22 7 -1 9 2 5 7 -7 12 14 54 45 91
l21 25 -11 -25 c-11 -24 -11 -24 5 -5 40 49 39 55 -9 49 -24 -4 -58 -2 -74 4
-27 9 -31 8 -42 -16z"/>
<path d="M7691 5657 c-17 -30 -33 -70 -36 -88 l-6 -34 14 36 c7 20 26 58 40
84 15 26 25 50 23 52 -2 2 -18 -20 -35 -50z"/>
<path d="M8252 5255 c0 -16 2 -22 5 -12 2 9 2 23 0 30 -3 6 -5 -1 -5 -18z"/>
<path d="M8191 5104 c-39 -36 -104 -106 -145 -154 -85 -101 -90 -118 -101
-305 -4 -60 -11 -118 -16 -127 -18 -33 -2 -18 26 25 42 62 129 170 225 277
126 140 140 161 140 206 0 34 -41 144 -53 144 -3 0 -37 -30 -76 -66z"/>
<path d="M7779 5083 l-24 -28 28 24 c25 23 32 31 24 31 -2 0 -14 -12 -28 -27z"/>
<path d="M8483 6584 c-16 -14 -23 -32 -25 -69 l-3 -50 35 0 c30 0 35 4 38 25
1 14 -3 45 -10 69 -13 43 -13 43 -35 25z"/>
<path d="M8976 6500 c-14 -22 -55 -113 -91 -201 -36 -89 -83 -195 -104 -236
-21 -40 -33 -68 -25 -62 20 16 105 196 164 344 28 72 60 143 71 158 12 16 19
31 16 33 -2 2 -16 -14 -31 -36z"/>
<path d="M7950 6455 c7 -9 15 -13 17 -11 7 7 -7 26 -19 26 -6 0 -6 -6 2 -15z"/>
<path d="M8333 6068 c-12 -13 -38 -51 -57 -86 -34 -60 -35 -65 -22 -96 19 -46
31 -50 55 -20 16 21 18 29 9 44 -9 14 -9 30 0 67 7 26 14 57 16 68 5 31 6 31
16 15 7 -12 9 -10 7 8 0 12 -2 22 -2 22 -1 0 -11 -10 -22 -22z"/>
<path d="M8596 5831 c-33 -33 -62 -59 -65 -58 -3 1 -26 -11 -51 -25 -25 -15
-76 -41 -115 -58 -102 -45 -136 -63 -131 -67 5 -5 124 41 211 82 70 33 157
102 196 156 11 16 19 29 17 29 -2 0 -30 -27 -62 -59z"/>
<path d="M2171 6860 c14 -31 19 -36 19 -24 0 6 -7 19 -16 30 -14 18 -14 18 -3
-6z"/>
<path d="M5450 6300 c8 -5 22 -10 30 -10 13 0 13 1 0 10 -8 5 -22 10 -30 10
-13 0 -13 -1 0 -10z"/>
<path d="M5560 5945 c14 -8 30 -14 35 -14 6 0 -1 6 -15 14 -14 8 -29 14 -35
14 -5 0 1 -6 15 -14z"/>
<path d="M4738 5953 c6 -2 18 -2 25 0 6 3 1 5 -13 5 -14 0 -19 -2 -12 -5z"/>
<path d="M4678 5943 c7 -3 16 -2 19 1 4 3 -2 6 -13 5 -11 0 -14 -3 -6 -6z"/>
<path d="M4628 5933 c7 -3 16 -2 19 1 4 3 -2 6 -13 5 -11 0 -14 -3 -6 -6z"/>
<path d="M4799 5840 c-203 -19 -409 -93 -585 -210 -98 -66 -274 -242 -336
-335 -141 -217 -193 -396 -192 -660 1 -146 4 -171 32 -280 35 -133 103 -282
175 -384 25 -35 87 -107 139 -158 437 -441 1120 -486 1624 -107 251 189 412
458 455 763 18 128 7 344 -24 463 -100 382 -432 734 -803 851 -159 50 -332 70
-485 57z m245 -811 c31 -11 58 -24 61 -29 3 -5 -16 1 -42 13 -40 18 -66 22
-155 22 -58 0 -101 3 -95 7 26 17 175 8 231 -13z m97 -56 c13 -16 12 -17 -3
-4 -10 7 -18 15 -18 17 0 8 8 3 21 -13z m175 -377 c-17 -114 -110 -236 -220
-287 -128 -60 -254 -62 -370 -5 -53 26 -141 95 -132 103 3 3 26 -13 52 -36
125 -109 361 -112 506 -6 75 55 156 197 159 277 0 13 3 17 6 10 3 -7 2 -32 -1
-56z"/>
<path d="M9438 5329 c-28 -21 -33 -43 -22 -86 6 -23 37 -32 48 -14 10 16 19
121 10 121 -5 0 -21 -10 -36 -21z"/>
<path d="M8987 4751 c6 -7 9 -20 6 -27 -3 -8 -3 -14 0 -14 14 0 14 30 -1 41
-14 11 -15 11 -5 0z"/>
<path d="M8860 4664 c-19 -8 -45 -12 -57 -9 -28 7 -69 -13 -105 -52 -36 -37
-48 -73 -48 -138 0 -42 4 -56 18 -64 33 -17 52 5 52 59 0 43 -3 50 -20 50 -24
0 -27 26 -6 55 7 11 14 24 14 28 0 5 4 12 7 15 4 4 6 -8 3 -25 -6 -41 6 -42
22 -3 16 38 24 43 85 51 28 4 60 10 72 14 19 6 22 3 26 -32 l4 -38 1 39 2 40
30 -34 c37 -41 39 -28 5 23 -29 41 -49 45 -105 21z m-120 -44 c0 -5 -5 -10
-11 -10 -5 0 -7 5 -4 10 3 6 8 10 11 10 2 0 4 -4 4 -10z"/>
<path d="M9002 4640 c0 -19 2 -27 5 -17 2 9 2 25 0 35 -3 9 -5 1 -5 -18z"/>
<path d="M8911 4524 c0 -11 3 -14 6 -6 3 7 2 16 -1 19 -3 4 -6 -2 -5 -13z"/>
<path d="M8813 4135 c0 -22 2 -30 4 -17 2 12 2 30 0 40 -3 9 -5 -1 -4 -23z"/>
<path d="M8050 3859 c-7 -11 -10 -23 -7 -25 2 -2 9 7 15 21 14 30 7 33 -8 4z"/>
<path d="M7599 3373 c-13 -16 -12 -17 4 -4 16 13 21 21 13 21 -2 0 -10 -8 -17
-17z"/>
<path d="M771 2812 c-15 -12 -21 -23 -16 -31 6 -11 9 -10 17 0 7 11 11 11 15
2 2 -7 15 -13 28 -13 13 0 26 -4 29 -9 6 -9 74 -26 89 -22 5 1 6 -3 3 -8 -4
-5 -1 -13 5 -16 7 -5 9 3 7 21 -2 21 -15 35 -52 56 -66 39 -96 44 -125 20z"/>
<path d="M1658 2665 c-6 -30 -2 -32 12 -6 6 11 6 22 1 25 -5 3 -11 -5 -13 -19z"/>
<path d="M1636 2614 c-4 -9 -4 -19 -2 -21 8 -8 26 8 26 23 0 19 -16 18 -24 -2z"/>
<path d="M1666 2577 c3 -10 9 -15 12 -12 3 3 0 11 -7 18 -10 9 -11 8 -5 -6z"/>
<path d="M2270 3099 c0 -2 8 -27 19 -54 10 -28 33 -88 50 -134 54 -144 64
-139 20 10 -14 51 -89 200 -89 178z"/>
<path d="M8217 2838 c-8 -29 -4 -32 11 -8 6 10 8 21 3 24 -5 3 -11 -4 -14 -16z"/>
<path d="M8261 2804 c6 -7 16 -11 21 -8 11 7 3 17 -18 20 -12 2 -13 -1 -3 -12z"/>
<path d="M8150 2781 c0 -6 5 -13 10 -16 6 -3 10 1 10 9 0 9 -4 16 -10 16 -5 0
-10 -4 -10 -9z"/>
<path d="M8120 2613 c0 -9 -7 -25 -17 -35 -26 -29 -9 -21 21 11 22 23 25 29
12 34 -11 4 -16 1 -16 -10z"/>
<path d="M1401 2818 c5 -10 11 -18 12 -18 2 0 3 8 3 18 0 10 -6 19 -13 19 -8
0 -9 -6 -2 -19z"/>
<path d="M1255 2789 l-20 -9 20 3 c11 2 35 -8 54 -22 19 -13 31 -20 27 -13
-16 27 -61 49 -81 41z"/>
<path d="M1331 2684 c0 -11 3 -14 6 -6 3 7 2 16 -1 19 -3 4 -6 -2 -5 -13z"/>
<path d="M1253 2628 c11 -10 27 -18 36 -17 10 0 7 4 -8 10 -14 5 -30 13 -36
17 -6 4 -2 -1 8 -10z"/>
<path d="M7600 2400 c-19 -10 -122 -49 -228 -87 l-192 -68 62 -3 c34 -2 96 4
139 13 109 22 243 79 222 94 -10 8 -13 41 -4 41 4 0 16 7 27 15 26 20 16 18
-26 -5z"/>
<path d="M1905 1716 c-16 -6 -45 -19 -63 -29 -18 -10 -38 -15 -45 -11 -8 5 -9
4 -2 -4 10 -11 59 3 170 48 18 8 17 9 -5 8 -14 0 -38 -6 -55 -12z"/>
<path d="M1930 1687 c-84 -30 -231 -108 -224 -119 3 -4 2 -8 -3 -8 -4 -1 -26
-17 -48 -37 -38 -34 -38 -34 -5 -11 53 37 182 95 250 112 39 10 70 26 88 44
16 16 36 28 47 26 17 -3 65 -49 65 -64 0 -5 55 -5 70 0 9 4 34 7 75 9 36 2 31
5 -60 33 -132 41 -175 43 -255 15z"/>
<path d="M1750 1641 c-19 -11 -39 -17 -44 -14 -5 4 -6 0 -1 -7 6 -9 4 -12 -6
-8 -8 3 -25 -3 -38 -13 -13 -11 -20 -19 -16 -19 5 0 0 -10 -11 -22 -10 -12 6
-3 36 19 30 22 70 48 88 57 17 9 32 19 32 21 0 7 0 7 -40 -14z m-60 -35 c0 -2
-8 -10 -17 -17 -16 -13 -17 -12 -4 4 13 16 21 21 21 13z"/>
<path d="M1420 1519 c-7 -11 -10 -23 -7 -25 2 -2 9 7 15 21 14 30 7 33 -8 4z"/>
<path d="M1569 1473 c-13 -16 -12 -17 4 -4 9 7 17 15 17 17 0 8 -8 3 -21 -13z"/>
<path d="M1396 1465 c-9 -26 -7 -32 5 -12 6 10 9 21 6 23 -2 3 -7 -2 -11 -11z"/>
<path d="M1376 1404 c-4 -14 -5 -28 -3 -31 3 -2 8 8 11 23 4 14 5 28 3 31 -3
2 -8 -8 -11 -23z"/>
<path d="M1398 2303 c6 -2 18 -2 25 0 6 3 1 5 -13 5 -14 0 -19 -2 -12 -5z"/>
<path d="M1335 2290 c-8 -13 5 -13 25 0 13 8 13 10 -2 10 -9 0 -20 -4 -23 -10z"/>
<path d="M6258 1383 c6 -2 18 -2 25 0 6 3 1 5 -13 5 -14 0 -19 -2 -12 -5z"/>
<path d="M5093 1373 c4 -6 30 -31 59 -55 29 -23 49 -38 45 -31 -4 6 -30 31
-59 55 -29 23 -49 38 -45 31z"/>
<path d="M6313 1373 c9 -2 23 -2 30 0 6 3 -1 5 -18 5 -16 0 -22 -2 -12 -5z"/>
<path d="M5070 1366 c0 -2 8 -10 18 -17 15 -13 16 -12 3 4 -13 16 -21 21 -21
13z"/>
<path d="M6228 1363 c6 -2 18 -2 25 0 6 3 1 5 -13 5 -14 0 -19 -2 -12 -5z"/>
<path d="M6308 1333 c7 -3 16 -2 19 1 4 3 -2 6 -13 5 -11 0 -14 -3 -6 -6z"/>
<path d="M6185 1300 c10 -11 20 -20 23 -20 3 0 -3 9 -13 20 -10 11 -20 20 -23
20 -3 0 3 -9 13 -20z"/>
<path d="M3390 1190 c-6 -11 -8 -20 -6 -20 3 0 10 9 16 20 6 11 8 20 6 20 -3
0 -10 -9 -16 -20z"/>
<path d="M3760 1195 c0 -8 2 -15 4 -15 2 0 6 7 10 15 3 8 1 15 -4 15 -6 0 -10
-7 -10 -15z"/>
<path d="M3975 1180 c-3 -5 -1 -10 4 -10 6 0 11 5 11 10 0 6 -2 10 -4 10 -3 0
-8 -4 -11 -10z"/>
<path d="M3333 1098 c-36 -52 -46 -68 -40 -68 4 0 44 56 70 97 19 31 -2 9 -30
-29z"/>
<path d="M3589 1123 c-13 -16 -12 -17 4 -4 9 7 17 15 17 17 0 8 -8 3 -21 -13z"/>
<path d="M3160 1127 c0 -19 22 -47 38 -46 10 0 12 3 4 6 -6 2 -9 10 -6 15 4 7
2 8 -4 4 -6 -3 -15 2 -21 11 -6 10 -11 14 -11 10z"/>
<path d="M2979 1083 c-13 -16 -12 -17 4 -4 16 13 21 21 13 21 -2 0 -10 -8 -17
-17z"/>
<path d="M3611 1073 c0 -7 -10 -22 -21 -33 -16 -16 -20 -33 -20 -84 0 -57 3
-65 21 -71 13 -5 27 -1 36 8 13 13 13 25 0 103 -8 49 -15 83 -16 77z"/>
<path d="M3330 1048 c-12 -22 -12 -22 6 -6 10 10 15 20 12 24 -4 3 -12 -5 -18
-18z"/>
<path d="M5230 1045 c13 -14 26 -25 28 -25 3 0 -5 11 -18 25 -13 14 -26 25
-28 25 -3 0 5 -11 18 -25z"/>
<path d="M2903 1028 c-25 -28 -46 -68 -39 -75 9 -10 26 8 26 29 0 12 10 32 22
45 12 13 19 23 16 23 -2 0 -14 -10 -25 -22z"/>
<path d="M4456 1041 c-4 -5 -2 -12 3 -15 5 -4 12 -2 15 3 4 5 2 12 -3 15 -5 4
-12 2 -15 -3z"/>
<path d="M5260 1006 c0 -2 8 -10 18 -17 15 -13 16 -12 3 4 -13 16 -21 21 -21
13z"/>
<path d="M3169 873 c-13 -16 -12 -17 4 -4 16 13 21 21 13 21 -2 0 -10 -8 -17
-17z"/>
<path d="M3976 805 c-9 -26 -7 -32 5 -12 6 10 9 21 6 23 -2 3 -7 -2 -11 -11z"/>
<path d="M4821 797 c2 -1 13 -9 24 -17 19 -14 19 -14 6 3 -7 9 -18 17 -24 17
-6 0 -8 -1 -6 -3z"/>
<path d="M7500 1721 c0 -5 5 -13 10 -16 6 -3 10 -2 10 4 0 5 -4 13 -10 16 -5
3 -10 2 -10 -4z"/>
<path d="M7340 1566 c0 -2 8 -10 18 -17 15 -13 16 -12 3 4 -13 16 -21 21 -21
13z"/>
<path d="M5265 1650 c-3 -5 -12 -7 -19 -4 -18 7 -30 -12 -15 -22 8 -5 9 -3 4
6 -6 10 -4 12 8 7 8 -3 21 1 27 9 7 8 10 14 7 14 -3 0 -8 -4 -12 -10z"/>
<path d="M3975 9203 c-24 -56 -21 -80 18 -168 39 -86 140 -369 152 -422 7 -35
52 -93 71 -93 6 0 17 -7 24 -15 7 -8 24 -15 39 -16 14 0 52 -10 85 -22 64 -24
110 -75 126 -138 4 -19 11 -43 15 -54 l8 -20 -17 20 c-10 11 -15 15 -12 8 4
-6 2 -14 -2 -17 -10 -6 -47 31 -91 93 -30 42 -32 44 -93 48 -56 3 -66 7 -90
36 -14 17 -28 30 -31 27 -15 -17 -28 -53 -20 -60 4 -4 44 -20 87 -36 89 -31
160 -84 247 -184 30 -33 81 -82 114 -109 33 -27 83 -70 110 -96 81 -77 72 -75
291 -82 193 -6 280 -1 270 16 -3 5 5 7 17 6 17 -2 23 3 25 20 2 31 -5 33 -298
50 -175 10 -261 19 -300 32 -56 18 -94 40 -101 58 -2 5 -7 9 -10 8 -3 -1 -6 4
-6 12 0 15 1 15 63 -27 62 -41 141 -58 277 -58 111 0 118 1 106 17 -8 9 -81
70 -164 136 -257 203 -293 235 -371 327 -42 49 -91 96 -110 105 -54 25 -154
56 -163 51 -8 -5 -59 46 -117 117 -20 24 -48 81 -49 102 -1 6 -10 28 -20 50
-29 63 -26 113 12 164 18 24 29 49 25 56 -4 6 -28 30 -54 54 l-47 43 -16 -39z
m580 -954 c11 -17 -1 -21 -15 -4 -8 9 -8 15 -2 15 6 0 14 -5 17 -11z"/>
<path d="M4468 9003 c7 -3 16 -2 19 1 4 3 -2 6 -13 5 -11 0 -14 -3 -6 -6z"/>
<path d="M4408 8993 c7 -3 16 -2 19 1 4 3 -2 6 -13 5 -11 0 -14 -3 -6 -6z"/>
<path d="M3880 8986 c0 -20 22 -56 35 -56 23 0 18 26 -10 44 -14 9 -25 14 -25
12z"/>
<path d="M4288 8973 c7 -3 16 -2 19 1 4 3 -2 6 -13 5 -11 0 -14 -3 -6 -6z"/>
<path d="M6410 8880 c0 -22 20 -26 38 -8 19 19 14 28 -13 28 -18 0 -25 -5 -25
-20z"/>
<path d="M5211 8882 c-1 -7 -5 -11 -10 -8 -4 3 -14 -14 -20 -37 -7 -23 -19
-57 -27 -75 -16 -38 -18 -129 -4 -167 l10 -27 33 21 c55 34 61 52 32 91 -28
37 -32 88 -14 153 6 21 8 44 5 50 -3 9 -5 8 -5 -1z"/>
<path d="M4101 8831 c12 -21 32 -52 45 -67 14 -16 6 1 -17 39 -44 72 -64 92
-28 28z"/>
<path d="M4646 8823 c-3 -4 -6 -16 -7 -27 -1 -18 -2 -18 -9 4 -5 15 -6 -1 -3
-42 5 -62 4 -68 -20 -92 -14 -14 -34 -26 -44 -27 -10 -1 -27 -2 -38 -3 -43 -3
-23 -81 45 -174 16 -22 109 -105 207 -184 97 -78 203 -166 235 -193 l58 -51
147 -11 c81 -7 148 -11 150 -9 8 8 -133 157 -226 237 -144 126 -146 128 -137
109 4 -8 -1 -5 -11 6 -11 12 -42 34 -69 48 -74 38 -155 97 -178 129 -18 25
-21 43 -21 133 1 57 -2 99 -5 94 -4 -6 -12 0 -19 13 -14 26 -46 49 -55 40z"/>
<path d="M6630 8755 c13 -35 14 -35 -16 -35 -24 0 -25 -3 -19 -27 14 -59 76
-93 104 -59 9 10 4 28 -22 77 -35 65 -66 95 -47 44z"/>
<path d="M4200 8695 c19 -19 36 -35 39 -35 3 0 -10 16 -29 35 -19 19 -36 35
-39 35 -3 0 10 -16 29 -35z"/>
<path d="M6124 8714 c-10 -8 -12 -12 -4 -8 13 7 13 5 2 -8 -19 -24 1 -70 30
-66 27 4 33 21 13 41 -16 17 -21 32 -6 23 5 -4 7 3 4 14 -6 24 -13 25 -39 4z"/>
<path d="M6411 8506 l-24 -31 28 27 c16 15 27 29 24 31 -2 3 -15 -10 -28 -27z"/>
<path d="M7518 8530 c-25 -15 -100 -140 -94 -156 7 -18 50 -18 87 1 16 9 34
13 40 10 5 -4 8 -3 7 2 -1 4 3 18 10 31 21 38 41 101 34 106 -19 11 -69 15
-84 6z"/>
<path d="M6420 8465 c0 -8 4 -15 10 -15 5 0 7 7 4 15 -4 8 -8 15 -10 15 -2 0
-4 -7 -4 -15z"/>
<path d="M6435 8375 c12 -133 55 -371 55 -305 0 9 5 7 15 -6 14 -18 14 -18 15
5 0 15 5 21 14 18 15 -6 43 23 57 61 22 58 -19 173 -77 216 -22 16 -50 40 -62
55 l-24 26 7 -70z"/>
<path d="M5257 8388 c-13 -7 -17 -24 -17 -79 l0 -70 43 -19 c23 -11 47 -20 53
-20 15 0 19 166 4 175 -24 15 -68 22 -83 13z"/>
<path d="M7941 8367 c-13 -21 -12 -21 5 -5 10 10 16 20 13 22 -3 3 -11 -5 -18
-17z"/>
<path d="M7322 8367 c-6 -6 -14 -26 -18 -42 -11 -49 -34 -87 -81 -138 -46 -50
-61 -77 -86 -164 l-16 -53 23 0 c32 0 89 41 91 65 4 48 20 94 61 176 43 87 66
169 47 169 -6 0 -15 -6 -21 -13z m-32 -127 c-6 -11 -13 -20 -16 -20 -2 0 0 9
6 20 6 11 13 20 16 20 2 0 0 -9 -6 -20z"/>
<path d="M5978 8270 l-27 -16 45 -22 c60 -30 66 -28 62 15 -3 32 -7 37 -28 38
-14 1 -37 -6 -52 -15z"/>
<path d="M7789 8253 l-24 -28 28 24 c15 14 27 26 27 28 0 8 -8 1 -31 -24z"/>
<path d="M6142 8118 c4 -37 19 -45 42 -23 20 20 21 41 2 48 -11 4 -13 1 -10
-11 5 -15 4 -15 -9 1 -21 25 -29 21 -25 -15z"/>
<path d="M6190 7954 c-71 -36 -86 -41 -90 -28 -6 15 -23 -61 -36 -158 -12 -90
5 -109 107 -123 47 -6 99 1 99 14 0 4 -38 26 -85 50 -47 24 -84 46 -81 48 2 2
40 -14 85 -36 44 -23 87 -41 95 -41 41 0 47 96 15 231 -11 49 -21 88 -22 87
-1 -1 -40 -21 -87 -44z"/>
<path d="M6733 7968 c-17 -18 -28 -40 -26 -48 3 -8 14 -39 26 -69 l21 -54 28
89 c15 49 26 95 23 102 -8 22 -40 13 -72 -20z"/>
<path d="M7380 7874 c0 -9 5 -14 12 -12 18 6 21 28 4 28 -9 0 -16 -7 -16 -16z"/>
<path d="M8017 7870 c-3 -12 -1 -18 5 -14 7 5 9 -3 5 -22 l-6 -29 13 30 c13
29 11 55 -4 55 -4 0 -10 -9 -13 -20z"/>
<path d="M7793 7813 c-27 -32 -59 -74 -71 -93 -24 -41 -55 -148 -77 -270 -9
-47 -21 -109 -26 -139 l-11 -54 -25 69 c-15 43 -23 85 -21 111 l3 42 -30 -18
c-32 -19 -33 -24 -20 -116 7 -46 5 -54 -20 -83 -15 -18 -34 -31 -41 -28 -7 3
-18 -3 -26 -12 -12 -16 -11 -16 7 -2 11 8 1 -4 -22 -28 -40 -39 -43 -46 -43
-97 0 -61 27 -138 68 -196 15 -21 29 -39 32 -38 12 0 191 323 235 421 40 90
61 123 132 204 91 103 118 150 101 171 -6 7 -7 20 -4 29 4 9 0 24 -7 33 -8 9
-24 42 -36 73 -35 86 -41 88 -98 21z m-363 -678 c0 -5 -5 -3 -10 5 -5 8 -10
20 -10 25 0 6 5 3 10 -5 5 -8 10 -19 10 -25z m10 -43 c0 -15 -2 -15 -10 -2
-13 20 -13 33 0 25 6 -3 10 -14 10 -23z"/>
<path d="M7480 7805 c0 -8 4 -15 10 -15 5 0 7 7 4 15 -4 8 -8 15 -10 15 -2 0
-4 -7 -4 -15z"/>
<path d="M7995 7770 c-9 -16 -13 -30 -11 -30 3 0 12 14 21 30 9 17 13 30 11
30 -3 0 -12 -13 -21 -30z"/>
<path d="M4913 7733 c9 -2 25 -2 35 0 9 3 1 5 -18 5 -19 0 -27 -2 -17 -5z"/>
<path d="M7358 7706 c-22 -51 25 -79 56 -34 14 20 14 24 -1 40 -22 25 -41 23
-55 -6z"/>
<path d="M6042 7675 c0 -16 2 -22 5 -12 2 9 2 23 0 30 -3 6 -5 -1 -5 -18z"/>
<path d="M6905 7517 c-3 -12 -14 -60 -25 -107 -18 -78 -19 -86 -4 -95 9 -5 24
-17 33 -25 12 -11 12 -12 1 -6 -33 21 108 -117 147 -143 48 -32 48 -50 0 -20
-38 23 -65 24 -94 4 -12 -8 -28 -12 -37 -9 -33 13 -14 -6 27 -27 59 -31 123
-31 148 0 25 30 24 35 -7 49 -35 17 -167 123 -160 130 4 3 16 -4 29 -15 12
-12 53 -42 92 -67 l70 -46 11 34 c7 19 20 77 28 129 l17 96 -26 41 c-34 53
-38 51 -9 -7 13 -25 21 -49 18 -52 -4 -3 -9 -1 -11 6 -14 38 -53 77 -93 93
-25 9 -69 26 -98 38 l-52 20 -5 -21z m86 -174 c13 -16 12 -17 -3 -4 -10 7 -18
15 -18 17 0 8 8 3 21 -13z m44 -33 c10 -11 16 -20 13 -20 -3 0 -13 9 -23 20
-10 11 -16 20 -13 20 3 0 13 -9 23 -20z m-60 -210 c3 -6 -1 -7 -9 -4 -18 7
-21 14 -7 14 6 0 13 -4 16 -10z m78 -27 c-7 -2 -19 -2 -25 0 -7 3 -2 5 12 5
14 0 19 -2 13 -5z"/>
<path d="M6988 7523 c7 -3 16 -2 19 1 4 3 -2 6 -13 5 -11 0 -14 -3 -6 -6z"/>
<path d="M7050 7506 c0 -2 9 -6 20 -9 11 -3 18 -1 14 4 -5 9 -34 13 -34 5z"/>
<path d="M7191 7474 c0 -11 3 -14 6 -6 3 7 2 16 -1 19 -3 4 -6 -2 -5 -13z"/>
<path d="M7181 7434 c0 -11 3 -14 6 -6 3 7 2 16 -1 19 -3 4 -6 -2 -5 -13z"/>
<path d="M8130 7178 c-14 -5 -33 -7 -42 -4 -11 2 -22 -3 -28 -14 -13 -25 -13
-33 4 -55 13 -18 14 -18 48 3 52 32 71 57 56 69 -9 7 -22 7 -38 1z"/>
<path d="M6868 7063 c7 -3 16 -2 19 1 4 3 -2 6 -13 5 -11 0 -14 -3 -6 -6z"/>
<path d="M6810 7050 c-18 -12 -2 -12 25 0 13 6 15 9 5 9 -8 0 -22 -4 -30 -9z"/>
<path d="M7381 6529 c-1 -9 8 -24 18 -33 19 -17 20 -17 31 6 10 21 10 21 -3 5
-15 -18 -27 -11 -40 23 -5 13 -6 13 -6 -1z"/>
</g>
</svg>
